%TF.GenerationSoftware,KiCad,Pcbnew,9.0.2+dfsg-1*%
%TF.CreationDate,2026-04-19T10:55:39+01:00*%
%TF.ProjectId,ledboards,6c656462-6f61-4726-9473-2e6b69636164,rev?*%
%TF.SameCoordinates,Original*%
%TF.FileFunction,Legend,Bot*%
%TF.FilePolarity,Positive*%
%FSLAX46Y46*%
G04 Gerber Fmt 4.6, Leading zero omitted, Abs format (unit mm)*
G04 Created by KiCad (PCBNEW 9.0.2+dfsg-1) date 2026-04-19 10:55:39*
%MOMM*%
%LPD*%
G01*
G04 APERTURE LIST*
%ADD10C,0.120000*%
G04 APERTURE END LIST*
D10*
%TO.C,J2*%
X101710000Y-54500000D02*
X100330000Y-54500000D01*
X101710000Y-55880000D02*
X101710000Y-54500000D01*
X101710000Y-57150000D02*
X101710000Y-64880000D01*
X101710000Y-57150000D02*
X98950000Y-57150000D01*
X101710000Y-64880000D02*
X98950000Y-64880000D01*
X98950000Y-57150000D02*
X98950000Y-64880000D01*
%TO.C,R8*%
X104351064Y-63146000D02*
X103896936Y-63146000D01*
X104351064Y-64616000D02*
X103896936Y-64616000D01*
%TO.C,R6*%
X104351064Y-60098000D02*
X103896936Y-60098000D01*
X104351064Y-61568000D02*
X103896936Y-61568000D01*
%TO.C,R4*%
X104351064Y-58066000D02*
X103896936Y-58066000D01*
X104351064Y-59536000D02*
X103896936Y-59536000D01*
%TO.C,R2*%
X104351064Y-54764000D02*
X103896936Y-54764000D01*
X104351064Y-56234000D02*
X103896936Y-56234000D01*
%TO.C,J1*%
X109330000Y-54500000D02*
X107950000Y-54500000D01*
X109330000Y-55880000D02*
X109330000Y-54500000D01*
X109330000Y-57150000D02*
X109330000Y-64880000D01*
X109330000Y-57150000D02*
X106570000Y-57150000D01*
X109330000Y-64880000D02*
X106570000Y-64880000D01*
X106570000Y-57150000D02*
X106570000Y-64880000D01*
%TD*%
M02*
