%TF.GenerationSoftware,KiCad,Pcbnew,9.0.2+dfsg-1*%
%TF.CreationDate,2026-04-19T10:55:39+01:00*%
%TF.ProjectId,ledboards,6c656462-6f61-4726-9473-2e6b69636164,rev?*%
%TF.SameCoordinates,Original*%
%TF.FileFunction,Legend,Top*%
%TF.FilePolarity,Positive*%
%FSLAX46Y46*%
G04 Gerber Fmt 4.6, Leading zero omitted, Abs format (unit mm)*
G04 Created by KiCad (PCBNEW 9.0.2+dfsg-1) date 2026-04-19 10:55:39*
%MOMM*%
%LPD*%
G01*
G04 APERTURE LIST*
%ADD10C,0.100000*%
%ADD11C,0.300000*%
%ADD12C,0.120000*%
G04 APERTURE END LIST*
D10*
X101424628Y-57485646D02*
X101824628Y-57485646D01*
X101767485Y-57485646D02*
X101796057Y-57514217D01*
X101796057Y-57514217D02*
X101824628Y-57571360D01*
X101824628Y-57571360D02*
X101824628Y-57657074D01*
X101824628Y-57657074D02*
X101796057Y-57714217D01*
X101796057Y-57714217D02*
X101738914Y-57742789D01*
X101738914Y-57742789D02*
X101424628Y-57742789D01*
X101738914Y-57742789D02*
X101796057Y-57771360D01*
X101796057Y-57771360D02*
X101824628Y-57828503D01*
X101824628Y-57828503D02*
X101824628Y-57914217D01*
X101824628Y-57914217D02*
X101796057Y-57971360D01*
X101796057Y-57971360D02*
X101738914Y-57999931D01*
X101738914Y-57999931D02*
X101424628Y-57999931D01*
X101424628Y-58371360D02*
X101453200Y-58314217D01*
X101453200Y-58314217D02*
X101481771Y-58285646D01*
X101481771Y-58285646D02*
X101538914Y-58257074D01*
X101538914Y-58257074D02*
X101710342Y-58257074D01*
X101710342Y-58257074D02*
X101767485Y-58285646D01*
X101767485Y-58285646D02*
X101796057Y-58314217D01*
X101796057Y-58314217D02*
X101824628Y-58371360D01*
X101824628Y-58371360D02*
X101824628Y-58457074D01*
X101824628Y-58457074D02*
X101796057Y-58514217D01*
X101796057Y-58514217D02*
X101767485Y-58542789D01*
X101767485Y-58542789D02*
X101710342Y-58571360D01*
X101710342Y-58571360D02*
X101538914Y-58571360D01*
X101538914Y-58571360D02*
X101481771Y-58542789D01*
X101481771Y-58542789D02*
X101453200Y-58514217D01*
X101453200Y-58514217D02*
X101424628Y-58457074D01*
X101424628Y-58457074D02*
X101424628Y-58371360D01*
X101424628Y-58914217D02*
X101453200Y-58857074D01*
X101453200Y-58857074D02*
X101510342Y-58828503D01*
X101510342Y-58828503D02*
X102024628Y-58828503D01*
X101453200Y-59371360D02*
X101424628Y-59314217D01*
X101424628Y-59314217D02*
X101424628Y-59199932D01*
X101424628Y-59199932D02*
X101453200Y-59142789D01*
X101453200Y-59142789D02*
X101510342Y-59114217D01*
X101510342Y-59114217D02*
X101738914Y-59114217D01*
X101738914Y-59114217D02*
X101796057Y-59142789D01*
X101796057Y-59142789D02*
X101824628Y-59199932D01*
X101824628Y-59199932D02*
X101824628Y-59314217D01*
X101824628Y-59314217D02*
X101796057Y-59371360D01*
X101796057Y-59371360D02*
X101738914Y-59399932D01*
X101738914Y-59399932D02*
X101681771Y-59399932D01*
X101681771Y-59399932D02*
X101624628Y-59114217D01*
X101824628Y-59657075D02*
X101424628Y-59657075D01*
X101767485Y-59657075D02*
X101796057Y-59685646D01*
X101796057Y-59685646D02*
X101824628Y-59742789D01*
X101824628Y-59742789D02*
X101824628Y-59828503D01*
X101824628Y-59828503D02*
X101796057Y-59885646D01*
X101796057Y-59885646D02*
X101738914Y-59914218D01*
X101738914Y-59914218D02*
X101424628Y-59914218D01*
X101453200Y-60228503D02*
X101424628Y-60228503D01*
X101424628Y-60228503D02*
X101367485Y-60199932D01*
X101367485Y-60199932D02*
X101338914Y-60171360D01*
X101424628Y-60942789D02*
X101824628Y-60942789D01*
X102024628Y-60942789D02*
X101996057Y-60914217D01*
X101996057Y-60914217D02*
X101967485Y-60942789D01*
X101967485Y-60942789D02*
X101996057Y-60971360D01*
X101996057Y-60971360D02*
X102024628Y-60942789D01*
X102024628Y-60942789D02*
X101967485Y-60942789D01*
X101824628Y-61228503D02*
X101424628Y-61228503D01*
X101767485Y-61228503D02*
X101796057Y-61257074D01*
X101796057Y-61257074D02*
X101824628Y-61314217D01*
X101824628Y-61314217D02*
X101824628Y-61399931D01*
X101824628Y-61399931D02*
X101796057Y-61457074D01*
X101796057Y-61457074D02*
X101738914Y-61485646D01*
X101738914Y-61485646D02*
X101424628Y-61485646D01*
X101453200Y-62028503D02*
X101424628Y-61971360D01*
X101424628Y-61971360D02*
X101424628Y-61857074D01*
X101424628Y-61857074D02*
X101453200Y-61799931D01*
X101453200Y-61799931D02*
X101481771Y-61771360D01*
X101481771Y-61771360D02*
X101538914Y-61742788D01*
X101538914Y-61742788D02*
X101710342Y-61742788D01*
X101710342Y-61742788D02*
X101767485Y-61771360D01*
X101767485Y-61771360D02*
X101796057Y-61799931D01*
X101796057Y-61799931D02*
X101824628Y-61857074D01*
X101824628Y-61857074D02*
X101824628Y-61971360D01*
X101824628Y-61971360D02*
X101796057Y-62028503D01*
X98911455Y-64793466D02*
X99444789Y-64793466D01*
X99178122Y-65060133D02*
X99178122Y-64526800D01*
X98911455Y-62253466D02*
X99444789Y-62253466D01*
X99178122Y-62520133D02*
X99178122Y-61986800D01*
X98911455Y-59713466D02*
X99444789Y-59713466D01*
X99178122Y-59980133D02*
X99178122Y-59446800D01*
X98911455Y-57300466D02*
X99444789Y-57300466D01*
X99178122Y-57567133D02*
X99178122Y-57033800D01*
X98911455Y-54633466D02*
X99444789Y-54633466D01*
X99178122Y-54900133D02*
X99178122Y-54366800D01*
X109220000Y-54102000D02*
X109728000Y-54102000D01*
X109728000Y-65278000D01*
X109220000Y-65278000D01*
X109220000Y-54102000D01*
G36*
X109220000Y-54102000D02*
G01*
X109728000Y-54102000D01*
X109728000Y-65278000D01*
X109220000Y-65278000D01*
X109220000Y-54102000D01*
G37*
D11*
X108123510Y-64888400D02*
X109266368Y-64888400D01*
X108123510Y-62221400D02*
X109266368Y-62221400D01*
X108123510Y-59681400D02*
X109266368Y-59681400D01*
X108250510Y-57141400D02*
X109393368Y-57141400D01*
X108123510Y-54601400D02*
X109266368Y-54601400D01*
D12*
%TO.C,LED4*%
X102280000Y-62540000D02*
X102280000Y-64460000D01*
X102280000Y-64460000D02*
X105140000Y-64460000D01*
X105140000Y-62540000D02*
X102280000Y-62540000D01*
%TO.C,LED3*%
X102280000Y-60000000D02*
X102280000Y-61920000D01*
X102280000Y-61920000D02*
X105140000Y-61920000D01*
X105140000Y-60000000D02*
X102280000Y-60000000D01*
%TO.C,LED2*%
X102280000Y-57460000D02*
X102280000Y-59380000D01*
X102280000Y-59380000D02*
X105140000Y-59380000D01*
X105140000Y-57460000D02*
X102280000Y-57460000D01*
%TO.C,LED1*%
X102280000Y-54920000D02*
X102280000Y-56840000D01*
X102280000Y-56840000D02*
X105140000Y-56840000D01*
X105140000Y-54920000D02*
X102280000Y-54920000D01*
%TD*%
M02*
