%TF.GenerationSoftware,KiCad,Pcbnew,9.0.2+dfsg-1*%
%TF.CreationDate,2026-04-19T10:55:07+01:00*%
%TF.ProjectId,ledboards,6c656462-6f61-4726-9473-2e6b69636164,rev?*%
%TF.SameCoordinates,Original*%
%TF.FileFunction,Copper,L2,Bot*%
%TF.FilePolarity,Positive*%
%FSLAX46Y46*%
G04 Gerber Fmt 4.6, Leading zero omitted, Abs format (unit mm)*
G04 Created by KiCad (PCBNEW 9.0.2+dfsg-1) date 2026-04-19 10:55:07*
%MOMM*%
%LPD*%
G01*
G04 APERTURE LIST*
G04 Aperture macros list*
%AMRoundRect*
0 Rectangle with rounded corners*
0 $1 Rounding radius*
0 $2 $3 $4 $5 $6 $7 $8 $9 X,Y pos of 4 corners*
0 Add a 4 corners polygon primitive as box body*
4,1,4,$2,$3,$4,$5,$6,$7,$8,$9,$2,$3,0*
0 Add four circle primitives for the rounded corners*
1,1,$1+$1,$2,$3*
1,1,$1+$1,$4,$5*
1,1,$1+$1,$6,$7*
1,1,$1+$1,$8,$9*
0 Add four rect primitives between the rounded corners*
20,1,$1+$1,$2,$3,$4,$5,0*
20,1,$1+$1,$4,$5,$6,$7,0*
20,1,$1+$1,$6,$7,$8,$9,0*
20,1,$1+$1,$8,$9,$2,$3,0*%
G04 Aperture macros list end*
%TA.AperFunction,ComponentPad*%
%ADD10R,1.700000X1.700000*%
%TD*%
%TA.AperFunction,ComponentPad*%
%ADD11C,1.700000*%
%TD*%
%TA.AperFunction,SMDPad,CuDef*%
%ADD12RoundRect,0.250000X0.350000X0.450000X-0.350000X0.450000X-0.350000X-0.450000X0.350000X-0.450000X0*%
%TD*%
%TA.AperFunction,ViaPad*%
%ADD13C,0.600000*%
%TD*%
%TA.AperFunction,Conductor*%
%ADD14C,0.400000*%
%TD*%
%TA.AperFunction,Conductor*%
%ADD15C,0.200000*%
%TD*%
G04 APERTURE END LIST*
D10*
%TO.P,J2,1,Pin_1*%
%TO.N,Net-(J2-Pin_1)*%
X100330000Y-55880000D03*
D11*
%TO.P,J2,2,Pin_2*%
%TO.N,Net-(J2-Pin_2)*%
X100330000Y-58420000D03*
%TO.P,J2,3,Pin_3*%
%TO.N,Net-(J2-Pin_3)*%
X100330000Y-60960000D03*
%TO.P,J2,4,Pin_4*%
%TO.N,Net-(J2-Pin_4)*%
X100330000Y-63500000D03*
%TD*%
D12*
%TO.P,R8,1*%
%TO.N,Net-(J1-Pin_4)*%
X105124000Y-63881000D03*
%TO.P,R8,2*%
%TO.N,Net-(LED4-A)*%
X103124000Y-63881000D03*
%TD*%
%TO.P,R6,1*%
%TO.N,Net-(J1-Pin_3)*%
X105124000Y-60833000D03*
%TO.P,R6,2*%
%TO.N,Net-(LED3-A)*%
X103124000Y-60833000D03*
%TD*%
%TO.P,R4,1*%
%TO.N,Net-(J1-Pin_2)*%
X105124000Y-58801000D03*
%TO.P,R4,2*%
%TO.N,Net-(LED2-A)*%
X103124000Y-58801000D03*
%TD*%
%TO.P,R2,1*%
%TO.N,Net-(J1-Pin_1)*%
X105124000Y-55499000D03*
%TO.P,R2,2*%
%TO.N,Net-(LED1-A)*%
X103124000Y-55499000D03*
%TD*%
D10*
%TO.P,J1,1,Pin_1*%
%TO.N,Net-(J1-Pin_1)*%
X107950000Y-55880000D03*
D11*
%TO.P,J1,2,Pin_2*%
%TO.N,Net-(J1-Pin_2)*%
X107950000Y-58420000D03*
%TO.P,J1,3,Pin_3*%
%TO.N,Net-(J1-Pin_3)*%
X107950000Y-60960000D03*
%TO.P,J1,4,Pin_4*%
%TO.N,Net-(J1-Pin_4)*%
X107950000Y-63500000D03*
%TD*%
D13*
%TO.N,Net-(LED3-A)*%
X103505000Y-62230000D03*
%TO.N,Net-(LED4-A)*%
X104902000Y-62230000D03*
%TO.N,Net-(LED2-A)*%
X104902000Y-57150000D03*
%TO.N,Net-(LED1-A)*%
X103505000Y-57150000D03*
%TD*%
D14*
%TO.N,Net-(J1-Pin_3)*%
X107950000Y-60960000D02*
X105251000Y-60960000D01*
X105251000Y-60960000D02*
X105124000Y-60833000D01*
%TO.N,Net-(J1-Pin_2)*%
X107950000Y-58420000D02*
X105505000Y-58420000D01*
X105505000Y-58420000D02*
X105124000Y-58801000D01*
%TO.N,Net-(J1-Pin_1)*%
X107950000Y-55880000D02*
X105759000Y-55880000D01*
X105759000Y-55880000D02*
X105124000Y-55245000D01*
%TO.N,Net-(LED2-A)*%
X104902000Y-57150000D02*
X103251000Y-58801000D01*
X103251000Y-58801000D02*
X103124000Y-58801000D01*
%TO.N,Net-(J1-Pin_4)*%
X107950000Y-63500000D02*
X107569000Y-63881000D01*
X107569000Y-63881000D02*
X105124000Y-63881000D01*
%TO.N,Net-(LED4-A)*%
X103251000Y-64262000D02*
X103251000Y-63881000D01*
X103251000Y-63881000D02*
X104902000Y-62230000D01*
%TO.N,Net-(LED3-A)*%
X103505000Y-62230000D02*
X103505000Y-61214000D01*
X103505000Y-61214000D02*
X103124000Y-60833000D01*
%TO.N,Net-(LED1-A)*%
X103505000Y-57150000D02*
X103505000Y-55626000D01*
X103505000Y-55626000D02*
X103124000Y-55245000D01*
D15*
%TO.N,Net-(LED2-A)*%
X103124000Y-58547000D02*
X103124000Y-58801000D01*
%TD*%
M02*
