M48
; DRILL file {KiCad 9.0.2+dfsg-1} date 2026-06-20T12:58:53+0100
; FORMAT={-:-/ absolute / metric / decimal}
; #@! TF.CreationDate,2026-06-20T12:58:53+01:00
; #@! TF.GenerationSoftware,Kicad,Pcbnew,9.0.2+dfsg-1
; #@! TF.FileFunction,Plated,1,2,PTH
FMAT,2
METRIC
; #@! TA.AperFunction,Plated,PTH,ViaDrill
T1C0.300
; #@! TA.AperFunction,Plated,PTH,ComponentDrill
T2C0.600
; #@! TA.AperFunction,Plated,PTH,ComponentDrill
T3C0.800
; #@! TA.AperFunction,Plated,PTH,ComponentDrill
T4C1.000
; #@! TA.AperFunction,Plated,PTH,ComponentDrill
T5C1.100
%
G90
G05
T1
X81.026Y-50.038
X81.026Y-54.864
X81.026Y-58.928
X81.026Y-63.754
X81.026Y-67.564
X81.28Y-22.098
X81.28Y-25.654
X81.28Y-31.242
X81.28Y-36.576
X81.28Y-45.212
X81.28Y-87.884
X81.534Y-40.386
X82.042Y-93.98
X82.296Y-74.93
X82.296Y-79.248
X82.55Y-51.816
X82.55Y-70.866
X83.82Y-89.916
X84.074Y-42.164
X84.074Y-46.736
X84.074Y-52.832
X84.074Y-86.36
X84.106Y-56.896
X84.328Y-22.098
X84.328Y-59.182
X84.328Y-62.992
X84.582Y-79.248
X85.09Y-74.168
X85.344Y-94.234
X86.09Y-44.704
X86.36Y-89.662
X86.614Y-79.248
X86.614Y-85.09
X86.614Y-86.614
X87.376Y-48.768
X87.376Y-55.88
X87.376Y-94.234
X87.63Y-76.708
X87.884Y-78.486
X88.138Y-54.356
X88.138Y-62.738
X88.646Y-38.354
X88.9Y-40.894
X88.9Y-64.516
X89.154Y-60.198
X89.154Y-85.344
X89.154Y-87.884
X89.408Y-43.688
X89.662Y-72.136
X89.662Y-80.01
X89.916Y-69.342
X90.17Y-48.514
X90.17Y-94.234
X90.424Y-73.914
X90.678Y-57.404
X90.678Y-61.976
X91.186Y-51.308
X91.322Y-87.836
X91.44Y-30.988
X92.202Y-81.026
X92.202Y-93.98
X92.394Y-58.674
X92.456Y-47.244
X92.456Y-53.086
X92.964Y-21.844
X93.218Y-24.892
X93.472Y-34.798
X93.726Y-37.846
X93.726Y-51.816
X93.726Y-59.182
X93.758Y-56.114
X94.029Y-48.58
X94.029Y-49.53
X94.069Y-62.601
X94.488Y-54.61
X94.488Y-85.344
X94.488Y-87.884
X95.758Y-43.688
X95.758Y-94.488
X96.012Y-31.75
X96.012Y-40.386
X96.012Y-53.086
X96.012Y-77.216
X96.266Y-57.912
X96.774Y-66.548
X97.028Y-37.338
X97.028Y-65.024
X97.028Y-72.644
X97.282Y-46.736
X97.282Y-54.864
X97.536Y-52.324
X97.79Y-54.102
X98.044Y-27.686
X98.298Y-49.53
X98.298Y-85.852
X98.298Y-87.884
X98.33Y-43.148
X98.552Y-38.862
X98.552Y-51.308
X98.552Y-78.994
X98.806Y-81.788
X99.06Y-40.894
X99.314Y-36.322
X99.568Y-22.098
X99.568Y-31.496
X99.568Y-44.45
X99.822Y-74.93
X99.822Y-89.916
X100.076Y-33.528
X100.076Y-87.376
X100.33Y-29.21
X100.33Y-79.502
X100.33Y-85.598
X100.822Y-93.885
X101.6Y-31.496
X101.6Y-34.036
X102.362Y-48.26
X102.616Y-26.162
X102.616Y-36.322
X103.124Y-30.226
X103.124Y-51.562
X103.124Y-57.912
X103.156Y-94.162
X103.378Y-44.45
X103.378Y-63.246
X103.378Y-83.058
X103.378Y-85.598
X103.378Y-88.646
X103.886Y-37.338
X103.886Y-65.024
X104.14Y-54.61
X104.394Y-31.496
X104.902Y-28.194
X104.902Y-36.83
X105.156Y-21.844
X105.156Y-88.392
X105.664Y-30.48
X105.664Y-77.724
X105.918Y-57.658
X105.918Y-66.802
X106.171Y-41.316
X106.172Y-42.926
X106.934Y-47.752
X107.188Y-31.242
X107.188Y-36.322
X107.188Y-52.324
X107.188Y-77.47
X107.435Y-93.94
X107.442Y-72.39
X107.696Y-23.114
X107.696Y-68.58
X107.95Y-27.432
X107.95Y-58.42
X108.138Y-48.163
X108.204Y-49.784
X108.204Y-61.468
X108.204Y-88.392
X108.458Y-46.228
X108.458Y-59.944
X108.458Y-85.598
X108.712Y-53.086
X108.712Y-55.626
X108.712Y-83.058
X108.966Y-63.246
X108.966Y-77.978
X109.709Y-44.27
X109.728Y-36.322
X109.728Y-74.676
X109.953Y-22.07
X109.982Y-93.98
X110.744Y-42.926
X110.998Y-75.946
X111.598Y-48.26
X111.76Y-23.876
X111.76Y-31.242
X111.76Y-36.576
X111.76Y-46.482
X111.776Y-77.724
X112.014Y-51.562
X112.014Y-63.246
X112.014Y-69.596
X112.268Y-40.894
X112.268Y-49.022
X112.268Y-53.086
X112.268Y-57.658
X112.268Y-88.646
X112.522Y-85.852
X112.776Y-44.958
X113.284Y-21.844
X113.284Y-94.234
X113.538Y-35.306
X113.538Y-37.592
X113.792Y-88.138
X114.046Y-29.464
X114.046Y-50.292
X114.138Y-38.354
X114.25Y-30.952
X114.3Y-46.482
X114.3Y-48.006
X114.3Y-89.662
X114.554Y-52.324
X114.554Y-59.944
X114.554Y-63.754
X114.808Y-39.116
X114.808Y-49.276
X114.808Y-57.912
X114.808Y-84.074
X115.316Y-42.672
X115.57Y-76.962
X115.57Y-78.486
X115.824Y-30.48
X116.078Y-93.98
X116.332Y-52.578
X116.332Y-83.058
X116.459Y-47.625
X116.586Y-89.662
X117.094Y-26.416
X117.094Y-57.658
X117.348Y-30.226
X117.348Y-66.294
X117.602Y-63.5
X117.856Y-49.53
X117.856Y-54.61
X118.11Y-48.006
X118.11Y-75.692
X118.11Y-85.852
X118.364Y-41.148
X118.364Y-73.66
X118.618Y-33.274
X118.618Y-69.596
X118.771Y-44.21
X118.872Y-32.004
X118.872Y-39.624
X119.126Y-71.628
X119.126Y-94.234
X119.38Y-43.688
X119.38Y-53.828
X119.38Y-89.662
X119.634Y-31.242
X119.634Y-33.274
X119.888Y-36.322
X119.888Y-55.228
X119.888Y-76.454
X119.957Y-53.274
X120.142Y-27.94
X120.142Y-51.308
X120.182Y-43.48
X120.396Y-32.766
X120.396Y-52.578
X120.65Y-35.306
X120.65Y-57.404
X120.65Y-65.024
X120.904Y-39.878
X120.904Y-78.74
X121.158Y-29.972
X121.158Y-46.482
X121.158Y-48.514
X121.158Y-54.864
X121.166Y-21.589
X121.272Y-34.658
X121.666Y-28.702
X121.666Y-37.592
X121.837Y-50.292
X121.837Y-53.546
X121.92Y-33.02
X121.92Y-43.434
X122.174Y-44.642
X122.204Y-42.642
X122.682Y-55.626
X122.682Y-76.454
X122.936Y-64.77
X123.004Y-36.29
X123.161Y-93.94
X123.19Y-90.678
X123.212Y-48.514
X123.444Y-27.686
X123.698Y-57.912
X123.952Y-80.264
X124.206Y-43.942
X124.46Y-48.006
X124.46Y-49.784
X124.46Y-74.168
X124.714Y-33.02
X124.841Y-45.085
X124.939Y-46.496
X124.968Y-52.578
X125.222Y-37.592
X125.222Y-53.848
X125.476Y-77.724
X125.73Y-69.342
X125.73Y-89.408
X125.984Y-56.134
X126.238Y-39.878
X126.238Y-85.852
X126.238Y-94.234
X126.492Y-35.052
X126.492Y-79.502
X126.746Y-36.576
X126.746Y-41.148
X127.508Y-21.59
X127.508Y-88.9
X127.762Y-45.72
X127.762Y-59.182
X128.524Y-29.464
X128.524Y-31.242
X128.524Y-44.958
X128.524Y-67.818
X128.524Y-70.358
X128.524Y-80.01
X128.524Y-83.058
X128.778Y-40.132
X128.778Y-42.164
X129.032Y-33.274
X129.54Y-43.434
X129.54Y-78.74
X129.794Y-94.234
X130.21Y-61.722
X130.302Y-76.454
X130.501Y-85.398
X130.556Y-44.196
X130.81Y-52.578
X130.81Y-58.928
X130.81Y-89.916
X131.064Y-50.038
X131.588Y-56.642
X131.826Y-36.322
X132.08Y-30.226
X132.08Y-83.566
X132.334Y-28.702
X132.334Y-32.004
X132.334Y-54.864
X132.334Y-79.756
X132.334Y-85.598
X132.588Y-74.676
X132.588Y-93.726
X133.096Y-21.59
X133.096Y-27.686
X133.096Y-60.706
X133.35Y-39.37
X134.112Y-53.594
X134.112Y-56.642
X134.874Y-26.416
X134.874Y-61.214
X134.874Y-89.916
X135.128Y-93.726
X135.382Y-31.496
X135.382Y-59.69
X135.382Y-66.548
X135.382Y-67.818
X135.636Y-36.322
X135.636Y-80.264
X135.89Y-75.946
X136.144Y-61.468
X136.144Y-85.344
X136.906Y-29.464
X136.906Y-39.624
X136.906Y-93.98
X137.16Y-34.544
X137.16Y-46.736
X137.541Y-63.881
X137.668Y-66.294
X137.668Y-76.2
X137.668Y-79.756
X137.668Y-89.662
X137.922Y-72.898
X138.176Y-23.622
X138.43Y-56.388
X138.684Y-21.59
X138.684Y-26.67
X138.938Y-74.422
X138.938Y-91.694
X139.446Y-29.464
X139.446Y-46.482
X139.573Y-63.881
X139.7Y-39.878
X139.7Y-66.294
X140.208Y-85.598
X140.716Y-24.13
X140.716Y-36.322
X140.716Y-79.756
X141.224Y-44.958
X141.224Y-94.742
X141.478Y-66.04
X141.605Y-58.071
X141.605Y-63.881
X141.732Y-56.642
X141.986Y-83.058
X142.24Y-21.59
X142.24Y-32.512
X142.494Y-89.916
X143.002Y-85.852
X143.256Y-28.448
X143.256Y-39.37
X143.51Y-35.306
X143.51Y-46.228
X143.637Y-58.071
X143.637Y-63.881
X143.764Y-66.04
X143.764Y-76.708
X143.764Y-78.74
X144.526Y-56.642
X145.034Y-94.234
X145.542Y-21.844
X145.542Y-26.162
X145.542Y-81.28
X145.796Y-64.008
X145.957Y-23.021
X146.05Y-49.022
X146.05Y-72.644
X146.304Y-85.598
X146.558Y-56.642
X146.812Y-35.052
X147.066Y-39.116
X147.32Y-89.916
X147.542Y-77.724
X147.828Y-21.844
X147.828Y-48.006
X147.828Y-63.754
X147.828Y-65.532
X147.831Y-94.421
X148.59Y-91.44
X149.352Y-28.956
X149.352Y-61.468
X149.352Y-79.502
X149.86Y-59.944
X150.368Y-42.926
X150.368Y-59.182
X150.368Y-75.946
X150.368Y-81.28
X150.368Y-85.598
X150.622Y-89.916
X151.13Y-22.098
X151.13Y-26.416
X151.384Y-25.4
X151.384Y-70.358
X151.638Y-30.226
X151.638Y-33.02
X152.146Y-41.656
X152.146Y-94.234
X152.4Y-59.436
X152.908Y-45.466
X152.908Y-91.694
X153.119Y-29.972
X153.162Y-32.512
X153.162Y-34.798
X153.162Y-70.612
X153.194Y-37.592
X153.416Y-57.404
X153.416Y-68.072
X153.67Y-69.85
X153.924Y-21.844
X153.924Y-52.324
X153.924Y-59.436
X154.178Y-41.402
X154.178Y-51.562
X154.178Y-54.102
X154.178Y-85.852
X154.432Y-79.756
X154.686Y-73.152
X154.94Y-76.2
X155.448Y-35.052
X155.702Y-85.598
X155.702Y-89.662
X155.956Y-50.546
X156.21Y-43.688
X156.21Y-53.34
X156.21Y-68.58
X156.21Y-70.612
X156.21Y-94.234
X156.718Y-80.772
X156.718Y-83.058
X157.188Y-43.688
X157.226Y-21.844
X157.226Y-41.656
X157.734Y-78.74
X157.988Y-43.688
X158.75Y-54.102
X158.75Y-61.468
X158.75Y-69.85
X158.75Y-71.628
X158.75Y-82.042
X158.75Y-85.598
X158.961Y-41.359
X158.966Y-43.688
X159.004Y-68.58
X159.004Y-70.866
X159.258Y-26.416
X159.258Y-62.484
X159.258Y-80.772
X159.258Y-89.662
X159.512Y-60.452
X159.766Y-43.688
X159.766Y-58.42
X159.766Y-72.39
X159.766Y-83.566
X159.989Y-41.137
X160.274Y-94.234
X160.528Y-46.482
X160.528Y-49.022
X160.528Y-55.626
X160.744Y-41.402
X160.782Y-21.844
X160.782Y-79.502
X161.036Y-51.724
X161.29Y-43.434
X161.29Y-89.916
X161.544Y-41.402
X161.544Y-81.534
X162.306Y-52.324
X162.306Y-73.406
X162.814Y-34.036
X162.814Y-78.232
X163.068Y-40.894
X163.068Y-73.152
X163.322Y-31.242
X163.576Y-94.234
X163.83Y-58.42
X163.83Y-60.452
X163.83Y-62.484
X164.084Y-72.644
X164.246Y-61.468
X164.338Y-89.916
X164.592Y-85.344
X164.846Y-41.91
X165.354Y-21.844
X165.354Y-77.47
X165.608Y-51.054
X165.608Y-53.086
X165.862Y-72.644
X166.116Y-59.436
X166.116Y-62.484
X166.116Y-65.024
X166.116Y-67.564
X166.116Y-70.104
X166.116Y-81.534
X166.624Y-54.356
X166.624Y-76.2
X166.878Y-31.496
X167.364Y-35.052
X167.386Y-37.846
X167.386Y-40.64
X167.386Y-54.61
X167.386Y-75.6
X167.64Y-89.916
X167.894Y-59.944
X168.132Y-85.845
X168.186Y-54.61
X168.402Y-94.234
X168.91Y-75.184
X168.986Y-54.61
X169.439Y-35.052
X169.461Y-40.132
X169.672Y-21.844
X169.672Y-84.074
X170.18Y-43.434
X170.18Y-46.736
X170.18Y-51.054
X170.18Y-53.086
X170.434Y-28.702
X170.434Y-90.17
X170.688Y-36.322
X170.942Y-38.862
X171.196Y-40.894
X171.196Y-65.024
X171.45Y-62.738
X171.45Y-67.564
X171.45Y-70.104
X171.45Y-72.644
X171.45Y-74.676
X171.45Y-81.534
X172.212Y-85.344
X172.255Y-82.761
X172.72Y-39.878
X172.821Y-83.326
X172.974Y-31.242
X172.974Y-89.916
X173.228Y-77.999
X173.482Y-80.356
X173.736Y-94.234
X173.99Y-40.894
X173.99Y-44.228
X173.99Y-53.086
X174.596Y-80.362
X174.974Y-61.214
X175.006Y-47.244
X175.006Y-89.662
X175.26Y-21.844
X175.26Y-77.999
X176.022Y-41.402
X176.022Y-54.864
X176.022Y-80.518
X176.276Y-94.234
X176.53Y-61.976
X176.53Y-66.802
X176.53Y-86.614
X176.53Y-91.694
X176.739Y-74.389
X176.784Y-47.244
X177.038Y-34.798
X177.038Y-64.516
X177.292Y-51.054
X177.384Y-74.862
X177.8Y-41.402
X177.8Y-43.942
X178.022Y-58.928
X178.054Y-30.734
X178.054Y-56.896
X178.562Y-85.852
X178.816Y-39.37
X178.816Y-43.942
X179.07Y-88.138
X179.324Y-61.468
X179.578Y-54.356
X179.578Y-64.516
X180.086Y-28.448
X180.34Y-93.98
X180.594Y-38.862
X180.594Y-90.424
X180.848Y-36.576
X181.356Y-46.228
X181.61Y-81.28
X181.864Y-50.038
X182.118Y-21.59
X182.245Y-46.863
X182.372Y-70.612
X182.626Y-26.162
X182.626Y-54.356
X182.626Y-61.468
X182.88Y-59.182
X182.88Y-74.93
X183.134Y-34.036
X183.134Y-64.77
X183.134Y-66.548
X183.642Y-36.322
X183.642Y-45.466
X183.896Y-46.482
X184.15Y-90.17
X184.404Y-62.23
X184.404Y-70.104
X184.404Y-77.216
X184.404Y-93.98
X184.658Y-49.53
X184.658Y-72.898
X184.912Y-82.804
X185.674Y-80.518
X186.182Y-58.928
X186.436Y-87.122
X186.69Y-90.17
X186.944Y-67.818
X187.198Y-60.198
X187.198Y-65.532
X187.198Y-75.184
X187.198Y-85.09
X187.452Y-21.844
X187.452Y-62.992
X187.96Y-94.234
X188.722Y-86.106
X188.743Y-48.768
X188.976Y-46.736
X189.738Y-81.026
X190.754Y-29.972
X191.008Y-22.098
X191.008Y-66.802
X191.008Y-71.628
X191.008Y-73.66
X191.008Y-75.692
X191.262Y-25.4
X191.262Y-34.798
X191.262Y-38.862
X191.262Y-47.752
X191.262Y-51.308
X191.262Y-54.61
X191.262Y-58.42
X191.262Y-62.23
X191.262Y-94.234
X191.514Y-91.16
X191.77Y-45.466
X191.77Y-87.63
T3
X84.074Y-64.77
X84.074Y-67.31
X84.074Y-69.85
X84.074Y-72.39
X91.694Y-64.77
X91.694Y-67.31
X91.694Y-69.85
X91.694Y-72.39
X95.29Y-37.846
X96.012Y-23.597
X96.012Y-26.097
X96.012Y-29.25
X96.012Y-34.25
X100.29Y-37.846
X103.378Y-33.186
X105.918Y-33.186
X108.458Y-33.186
X110.998Y-33.186
X115.864Y-24.892
X118.364Y-24.892
X121.96Y-24.892
X124.46Y-24.892
X128.081Y-24.892
X130.581Y-24.892
X130.81Y-33.528
X130.81Y-41.148
X133.35Y-33.528
X133.35Y-41.148
X134.177Y-24.892
X135.89Y-33.528
X135.89Y-41.148
X136.677Y-24.892
X138.43Y-33.528
X138.43Y-41.148
X140.97Y-33.528
X140.97Y-41.148
X143.51Y-33.528
X143.51Y-41.148
X146.05Y-33.528
X146.05Y-41.148
X157.48Y-24.892
X157.48Y-27.432
X157.48Y-29.972
X157.48Y-32.512
X157.48Y-35.052
X157.48Y-37.592
X157.48Y-40.132
X165.1Y-24.892
X165.1Y-27.432
X165.1Y-29.972
X165.1Y-32.512
X165.1Y-35.052
X165.1Y-37.592
X165.1Y-40.132
X178.054Y-28.234
X178.054Y-33.234
X181.102Y-51.562
X181.102Y-54.102
X181.102Y-56.642
X181.102Y-59.182
X181.102Y-61.722
X181.102Y-64.262
X181.102Y-66.802
X181.102Y-69.342
X181.102Y-71.882
X181.102Y-74.422
X188.722Y-51.562
X188.722Y-54.102
X188.722Y-56.642
X188.722Y-59.182
X188.722Y-61.722
X188.722Y-64.262
X188.722Y-66.802
X188.722Y-69.342
X188.722Y-71.882
X188.722Y-74.422
T4
X85.09Y-91.577
X87.59Y-91.577
X90.09Y-91.577
X98.552Y-56.134
X98.552Y-58.674
X98.552Y-61.214
X98.552Y-63.754
X98.552Y-66.294
X98.552Y-68.834
X98.552Y-71.374
X98.552Y-73.914
X99.1Y-91.577
X101.092Y-56.134
X101.092Y-58.674
X101.092Y-61.214
X101.092Y-63.754
X101.092Y-66.294
X101.092Y-68.834
X101.092Y-71.374
X101.092Y-73.914
X101.6Y-91.577
X104.1Y-91.577
X113.07Y-91.577
X115.57Y-91.577
X118.07Y-91.577
X120.523Y-67.818
X120.523Y-70.358
X120.523Y-72.898
X123.063Y-67.818
X123.063Y-70.358
X123.063Y-72.898
X127.0Y-91.577
X129.5Y-91.577
X132.0Y-91.577
X140.97Y-91.577
X141.351Y-67.818
X141.351Y-70.358
X141.351Y-72.898
X143.47Y-91.577
X143.891Y-67.818
X143.891Y-70.358
X143.891Y-72.898
X145.97Y-91.577
X155.02Y-91.577
X157.52Y-91.577
X160.02Y-91.577
X161.798Y-45.212
X161.798Y-47.752
X161.798Y-50.292
X161.798Y-54.356
X161.798Y-56.896
X164.338Y-45.212
X164.338Y-47.752
X164.338Y-50.292
X164.338Y-54.356
X164.338Y-56.896
X167.386Y-61.214
X167.386Y-63.754
X167.386Y-66.294
X167.386Y-68.834
X167.386Y-71.374
X167.386Y-73.914
X168.976Y-91.577
X169.926Y-61.214
X169.926Y-63.754
X169.926Y-66.294
X169.926Y-68.834
X169.926Y-71.374
X169.926Y-73.914
X171.476Y-91.577
X173.976Y-91.577
X182.866Y-91.577
X183.134Y-41.148
X183.134Y-43.688
X185.366Y-91.577
X185.674Y-41.148
X185.674Y-43.688
X187.866Y-91.577
X188.214Y-41.148
X188.214Y-43.688
T2
G00X88.13Y-22.73
M15
G01X87.13Y-22.73
M16
G05
G00X88.13Y-25.83
M15
G01X87.13Y-25.83
M16
G05
G00X88.13Y-34.13
M15
G01X87.13Y-34.13
M16
G05
G00X185.666Y-22.86
M15
G01X184.666Y-22.86
M16
G05
G00X185.666Y-25.96
M15
G01X184.666Y-25.96
M16
G05
G00X185.666Y-34.26
M15
G01X184.666Y-34.26
M16
G05
T5
G00X82.79Y-84.427
M15
G01X82.79Y-83.727
M16
G05
G00X92.39Y-84.427
M15
G01X92.39Y-83.727
M16
G05
G00X96.8Y-84.427
M15
G01X96.8Y-83.727
M16
G05
G00X106.4Y-84.427
M15
G01X106.4Y-83.727
M16
G05
G00X110.77Y-84.427
M15
G01X110.77Y-83.727
M16
G05
G00X120.37Y-84.427
M15
G01X120.37Y-83.727
M16
G05
G00X124.7Y-84.427
M15
G01X124.7Y-83.727
M16
G05
G00X134.3Y-84.427
M15
G01X134.3Y-83.727
M16
G05
G00X138.67Y-84.427
M15
G01X138.67Y-83.727
M16
G05
G00X148.27Y-84.427
M15
G01X148.27Y-83.727
M16
G05
G00X152.72Y-84.427
M15
G01X152.72Y-83.727
M16
G05
G00X162.32Y-84.427
M15
G01X162.32Y-83.727
M16
G05
G00X166.676Y-84.427
M15
G01X166.676Y-83.727
M16
G05
G00X176.276Y-84.427
M15
G01X176.276Y-83.727
M16
G05
G00X180.566Y-84.427
M15
G01X180.566Y-83.727
M16
G05
G00X190.166Y-84.427
M15
G01X190.166Y-83.727
M16
G05
M30
