%TF.GenerationSoftware,KiCad,Pcbnew,9.0.2+dfsg-1*%
%TF.CreationDate,2026-06-20T12:58:50+01:00*%
%TF.ProjectId,squares-revB,73717561-7265-4732-9d72-6576422e6b69,rev?*%
%TF.SameCoordinates,Original*%
%TF.FileFunction,Soldermask,Bot*%
%TF.FilePolarity,Negative*%
%FSLAX46Y46*%
G04 Gerber Fmt 4.6, Leading zero omitted, Abs format (unit mm)*
G04 Created by KiCad (PCBNEW 9.0.2+dfsg-1) date 2026-06-20 12:58:50*
%MOMM*%
%LPD*%
G01*
G04 APERTURE LIST*
G04 Aperture macros list*
%AMRoundRect*
0 Rectangle with rounded corners*
0 $1 Rounding radius*
0 $2 $3 $4 $5 $6 $7 $8 $9 X,Y pos of 4 corners*
0 Add a 4 corners polygon primitive as box body*
4,1,4,$2,$3,$4,$5,$6,$7,$8,$9,$2,$3,0*
0 Add four circle primitives for the rounded corners*
1,1,$1+$1,$2,$3*
1,1,$1+$1,$4,$5*
1,1,$1+$1,$6,$7*
1,1,$1+$1,$8,$9*
0 Add four rect primitives between the rounded corners*
20,1,$1+$1,$2,$3,$4,$5,0*
20,1,$1+$1,$4,$5,$6,$7,0*
20,1,$1+$1,$6,$7,$8,$9,0*
20,1,$1+$1,$8,$9,$2,$3,0*%
G04 Aperture macros list end*
%ADD10C,1.800000*%
%ADD11R,1.800000X1.800000*%
%ADD12O,2.720000X3.240000*%
%ADD13C,1.600000*%
%ADD14RoundRect,0.250000X-0.550000X-0.550000X0.550000X-0.550000X0.550000X0.550000X-0.550000X0.550000X0*%
%ADD15R,1.700000X1.700000*%
%ADD16C,1.700000*%
%ADD17C,3.500000*%
%ADD18O,3.100000X2.300000*%
%ADD19RoundRect,0.650000X0.650000X0.650000X-0.650000X0.650000X-0.650000X-0.650000X0.650000X-0.650000X0*%
%ADD20O,1.200000X2.000000*%
%ADD21RoundRect,0.250000X0.550000X-0.550000X0.550000X0.550000X-0.550000X0.550000X-0.550000X-0.550000X0*%
G04 APERTURE END LIST*
D10*
%TO.C,VR8*%
X187866000Y-91577000D03*
X185366000Y-91577000D03*
D11*
X182866000Y-91577000D03*
D12*
X190166000Y-84077000D03*
X180566000Y-84077000D03*
%TD*%
%TO.C,VR1*%
X82790000Y-84077000D03*
X92390000Y-84077000D03*
D11*
X85090000Y-91577000D03*
D10*
X87590000Y-91577000D03*
X90090000Y-91577000D03*
%TD*%
D12*
%TO.C,VR5*%
X152720000Y-84077000D03*
X162320000Y-84077000D03*
D11*
X155020000Y-91577000D03*
D10*
X157520000Y-91577000D03*
X160020000Y-91577000D03*
%TD*%
D12*
%TO.C,VR6*%
X138670000Y-84077000D03*
X148270000Y-84077000D03*
D11*
X140970000Y-91577000D03*
D10*
X143470000Y-91577000D03*
X145970000Y-91577000D03*
%TD*%
D13*
%TO.C,C2*%
X95290000Y-37846000D03*
X100290000Y-37846000D03*
%TD*%
D14*
%TO.C,C5*%
X134176888Y-24892000D03*
D13*
X136676888Y-24892000D03*
%TD*%
D14*
%TO.C,U7*%
X181102000Y-51562000D03*
D13*
X181102000Y-54102000D03*
X181102000Y-56642000D03*
X181102000Y-59182000D03*
X181102000Y-61722000D03*
X181102000Y-64262000D03*
X181102000Y-66802000D03*
X181102000Y-69342000D03*
X181102000Y-71882000D03*
X181102000Y-74422000D03*
X188722000Y-74422000D03*
X188722000Y-71882000D03*
X188722000Y-69342000D03*
X188722000Y-66802000D03*
X188722000Y-64262000D03*
X188722000Y-61722000D03*
X188722000Y-59182000D03*
X188722000Y-56642000D03*
X188722000Y-54102000D03*
X188722000Y-51562000D03*
%TD*%
D12*
%TO.C,VR7*%
X166676000Y-84077000D03*
X176276000Y-84077000D03*
D11*
X168976000Y-91577000D03*
D10*
X171476000Y-91577000D03*
X173976000Y-91577000D03*
%TD*%
D15*
%TO.C,J9*%
X188214000Y-43688000D03*
D16*
X188214000Y-41148000D03*
X185674000Y-43688000D03*
X185674000Y-41148000D03*
X183134000Y-43688000D03*
X183134000Y-41148000D03*
%TD*%
D15*
%TO.C,J6*%
X164338000Y-54356000D03*
D16*
X161798000Y-54356000D03*
X164338000Y-56896000D03*
X161798000Y-56896000D03*
%TD*%
D14*
%TO.C,C7*%
X115864000Y-24892000D03*
D13*
X118364000Y-24892000D03*
%TD*%
D14*
%TO.C,U1*%
X84074000Y-64770000D03*
D13*
X84074000Y-67310000D03*
X84074000Y-69850000D03*
X84074000Y-72390000D03*
X91694000Y-72390000D03*
X91694000Y-69850000D03*
X91694000Y-67310000D03*
X91694000Y-64770000D03*
%TD*%
D14*
%TO.C,C6*%
X128080888Y-24892000D03*
D13*
X130580888Y-24892000D03*
%TD*%
D12*
%TO.C,VR2*%
X96800000Y-84077000D03*
X106400000Y-84077000D03*
D11*
X99100000Y-91577000D03*
D10*
X101600000Y-91577000D03*
X104100000Y-91577000D03*
%TD*%
D14*
%TO.C,C8*%
X121960000Y-24892000D03*
D13*
X124460000Y-24892000D03*
%TD*%
D15*
%TO.C,J7*%
X143891000Y-67818000D03*
D16*
X141351000Y-67818000D03*
X143891000Y-70358000D03*
X141351000Y-70358000D03*
X143891000Y-72898000D03*
X141351000Y-72898000D03*
%TD*%
D17*
%TO.C,J8*%
X185166000Y-29340000D03*
D18*
X185166000Y-22860000D03*
D19*
X185166000Y-34260000D03*
X185166000Y-25960000D03*
%TD*%
D20*
%TO.C,J2*%
X110998000Y-33186000D03*
X108458000Y-33186000D03*
X105918000Y-33186000D03*
X103378000Y-33186000D03*
%TD*%
D17*
%TO.C,J1*%
X87630000Y-29210000D03*
D18*
X87630000Y-22730000D03*
D19*
X87630000Y-34130000D03*
X87630000Y-25830000D03*
%TD*%
D15*
%TO.C,J10*%
X169926000Y-61214000D03*
D16*
X167386000Y-61214000D03*
X169926000Y-63754000D03*
X167386000Y-63754000D03*
X169926000Y-66294000D03*
X167386000Y-66294000D03*
X169926000Y-68834000D03*
X167386000Y-68834000D03*
X169926000Y-71374000D03*
X167386000Y-71374000D03*
X169926000Y-73914000D03*
X167386000Y-73914000D03*
%TD*%
D14*
%TO.C,U6*%
X157480000Y-24892000D03*
D13*
X157480000Y-27432000D03*
X157480000Y-29972000D03*
X157480000Y-32512000D03*
X157480000Y-35052000D03*
X157480000Y-37592000D03*
X157480000Y-40132000D03*
X165100000Y-40132000D03*
X165100000Y-37592000D03*
X165100000Y-35052000D03*
X165100000Y-32512000D03*
X165100000Y-29972000D03*
X165100000Y-27432000D03*
X165100000Y-24892000D03*
%TD*%
D12*
%TO.C,VR4*%
X124700000Y-84077000D03*
X134300000Y-84077000D03*
D11*
X127000000Y-91577000D03*
D10*
X129500000Y-91577000D03*
X132000000Y-91577000D03*
%TD*%
D15*
%TO.C,J5*%
X164338000Y-45212000D03*
D16*
X161798000Y-45212000D03*
X164338000Y-47752000D03*
X161798000Y-47752000D03*
X164338000Y-50292000D03*
X161798000Y-50292000D03*
%TD*%
D12*
%TO.C,VR3*%
X110770000Y-84077000D03*
X120370000Y-84077000D03*
D11*
X113070000Y-91577000D03*
D10*
X115570000Y-91577000D03*
X118070000Y-91577000D03*
%TD*%
D13*
%TO.C,C19*%
X178054000Y-33234000D03*
X178054000Y-28234000D03*
%TD*%
D15*
%TO.C,J3*%
X101092000Y-56134000D03*
D16*
X98552000Y-56134000D03*
X101092000Y-58674000D03*
X98552000Y-58674000D03*
X101092000Y-61214000D03*
X98552000Y-61214000D03*
X101092000Y-63754000D03*
X98552000Y-63754000D03*
X101092000Y-66294000D03*
X98552000Y-66294000D03*
X101092000Y-68834000D03*
X98552000Y-68834000D03*
X101092000Y-71374000D03*
X98552000Y-71374000D03*
X101092000Y-73914000D03*
X98552000Y-73914000D03*
%TD*%
D21*
%TO.C,C3*%
X96012000Y-26097113D03*
D13*
X96012000Y-23597113D03*
%TD*%
D15*
%TO.C,J4*%
X123063000Y-67818000D03*
D16*
X120523000Y-67818000D03*
X123063000Y-70358000D03*
X120523000Y-70358000D03*
X123063000Y-72898000D03*
X120523000Y-72898000D03*
%TD*%
D21*
%TO.C,U3*%
X130810000Y-41148000D03*
D13*
X133350000Y-41148000D03*
X135890000Y-41148000D03*
X138430000Y-41148000D03*
X140970000Y-41148000D03*
X143510000Y-41148000D03*
X146050000Y-41148000D03*
X146050000Y-33528000D03*
X143510000Y-33528000D03*
X140970000Y-33528000D03*
X138430000Y-33528000D03*
X135890000Y-33528000D03*
X133350000Y-33528000D03*
X130810000Y-33528000D03*
%TD*%
%TO.C,C1*%
X96012000Y-34250000D03*
X96012000Y-29250000D03*
%TD*%
M02*
