%TF.GenerationSoftware,KiCad,Pcbnew,9.0.2+dfsg-1*%
%TF.CreationDate,2026-06-20T12:58:50+01:00*%
%TF.ProjectId,squares-revB,73717561-7265-4732-9d72-6576422e6b69,rev?*%
%TF.SameCoordinates,Original*%
%TF.FileFunction,Legend,Bot*%
%TF.FilePolarity,Positive*%
%FSLAX46Y46*%
G04 Gerber Fmt 4.6, Leading zero omitted, Abs format (unit mm)*
G04 Created by KiCad (PCBNEW 9.0.2+dfsg-1) date 2026-06-20 12:58:50*
%MOMM*%
%LPD*%
G01*
G04 APERTURE LIST*
%ADD10C,0.200000*%
G04 APERTURE END LIST*
D10*
G36*
X144441863Y-78761029D02*
G01*
X144441863Y-80000000D01*
X144606434Y-80000000D01*
X144606434Y-78761029D01*
X144441863Y-78761029D01*
G37*
G36*
X143946234Y-79142155D02*
G01*
X144024208Y-79166448D01*
X144093563Y-79205597D01*
X144150530Y-79256280D01*
X144195856Y-79317805D01*
X144229811Y-79390150D01*
X144250437Y-79469121D01*
X144257509Y-79555966D01*
X144249454Y-79662866D01*
X144226880Y-79751971D01*
X144189484Y-79831405D01*
X144141298Y-79894706D01*
X144081375Y-79945163D01*
X144011165Y-79981974D01*
X143933607Y-80004128D01*
X143847840Y-80011723D01*
X143754271Y-80004176D01*
X143662386Y-79980729D01*
X143619145Y-79962341D01*
X143578489Y-79939183D01*
X143541246Y-79911088D01*
X143508733Y-79878293D01*
X143555774Y-79817843D01*
X143568837Y-79806602D01*
X143586842Y-79802749D01*
X143602087Y-79805546D01*
X143621647Y-79815352D01*
X143670373Y-79842609D01*
X143739176Y-79869867D01*
X143781081Y-79879096D01*
X143833625Y-79882470D01*
X143889681Y-79877697D01*
X143938552Y-79864005D01*
X143982246Y-79840745D01*
X144019518Y-79807805D01*
X144049309Y-79766248D01*
X144072861Y-79713356D01*
X144087606Y-79653829D01*
X144094696Y-79580293D01*
X143535624Y-79580293D01*
X143515731Y-79576701D01*
X143504557Y-79567323D01*
X143498763Y-79551003D01*
X143496130Y-79516472D01*
X143499185Y-79478736D01*
X143643922Y-79478736D01*
X144090446Y-79478736D01*
X144074112Y-79410627D01*
X144048873Y-79356343D01*
X144015342Y-79313360D01*
X143972448Y-79281062D01*
X143919284Y-79260971D01*
X143852896Y-79253789D01*
X143804493Y-79258174D01*
X143763943Y-79270568D01*
X143728116Y-79290834D01*
X143698510Y-79317609D01*
X143675055Y-79350221D01*
X143657770Y-79388904D01*
X143647484Y-79431272D01*
X143643922Y-79478736D01*
X143499185Y-79478736D01*
X143503275Y-79428213D01*
X143523461Y-79353660D01*
X143556389Y-79287137D01*
X143598566Y-79233639D01*
X143650695Y-79190860D01*
X143712358Y-79159340D01*
X143780400Y-79140262D01*
X143856266Y-79133695D01*
X143946234Y-79142155D01*
G37*
G36*
X143059131Y-80013408D02*
G01*
X143125580Y-80006320D01*
X143177497Y-79986709D01*
X143218206Y-79955523D01*
X143248061Y-79913602D01*
X143267057Y-79859647D01*
X143273967Y-79790146D01*
X143273967Y-79279801D01*
X143373032Y-79279801D01*
X143386302Y-79277552D01*
X143396992Y-79271008D01*
X143403999Y-79260479D01*
X143406591Y-79244556D01*
X143406591Y-79178244D01*
X143268105Y-79158900D01*
X143231176Y-78904570D01*
X143218206Y-78882369D01*
X143193367Y-78874382D01*
X143110275Y-78874382D01*
X143110275Y-79160586D01*
X142868548Y-79160586D01*
X142868548Y-79279801D01*
X143110275Y-79279801D01*
X143110275Y-79779228D01*
X143103474Y-79824966D01*
X143085509Y-79854333D01*
X143057680Y-79872750D01*
X143022128Y-79879099D01*
X142983147Y-79873237D01*
X142955010Y-79860268D01*
X142934860Y-79847226D01*
X142919766Y-79841364D01*
X142906723Y-79845174D01*
X142897125Y-79857264D01*
X142848398Y-79936179D01*
X142892032Y-79968650D01*
X142944093Y-79993258D01*
X143000468Y-80008357D01*
X143059131Y-80013408D01*
G37*
G36*
X142589452Y-78794588D02*
G01*
X142589452Y-79037194D01*
X142604619Y-79168133D01*
X142611217Y-79195317D01*
X142620959Y-79213489D01*
X142636253Y-79225021D01*
X142661699Y-79229389D01*
X142683619Y-79225235D01*
X142699068Y-79213489D01*
X142709617Y-79195255D01*
X142717093Y-79168133D01*
X142732188Y-79037194D01*
X142732188Y-78794588D01*
X142589452Y-78794588D01*
G37*
G36*
X141886472Y-79294089D02*
G01*
X141900760Y-79309549D01*
X141920104Y-79314166D01*
X141949927Y-79304933D01*
X141989347Y-79284856D01*
X142043496Y-79264706D01*
X142076154Y-79257953D01*
X142117355Y-79255474D01*
X142151639Y-79257757D01*
X142181542Y-79264267D01*
X142208818Y-79275010D01*
X142230635Y-79288593D01*
X142248586Y-79305723D01*
X142261703Y-79325523D01*
X142269882Y-79347616D01*
X142272620Y-79371245D01*
X142267762Y-79400882D01*
X142253789Y-79424221D01*
X142232547Y-79443278D01*
X142204257Y-79460272D01*
X142134574Y-79487529D01*
X142054853Y-79513175D01*
X141975059Y-79543803D01*
X141937827Y-79563285D01*
X141905377Y-79586594D01*
X141877744Y-79614723D01*
X141855844Y-79648290D01*
X141841964Y-79687023D01*
X141836940Y-79736437D01*
X141842409Y-79794332D01*
X141858409Y-79846786D01*
X141884808Y-79894055D01*
X141921350Y-79934494D01*
X141966847Y-79966895D01*
X142024152Y-79992452D01*
X142088063Y-80007903D01*
X142164323Y-80013408D01*
X142250046Y-80005894D01*
X142327208Y-79984026D01*
X142397132Y-79949876D01*
X142452285Y-79909361D01*
X142413670Y-79846420D01*
X142396891Y-79828321D01*
X142370000Y-79822020D01*
X142354350Y-79824783D01*
X142337247Y-79833817D01*
X142297020Y-79859389D01*
X142239940Y-79884595D01*
X142204063Y-79892791D01*
X142155970Y-79895879D01*
X142115549Y-79893089D01*
X142082917Y-79885401D01*
X142053896Y-79872708D01*
X142031333Y-79856898D01*
X142013246Y-79837278D01*
X142000705Y-79815352D01*
X141993131Y-79791256D01*
X141990593Y-79765819D01*
X141995488Y-79734588D01*
X142009497Y-79709986D01*
X142030770Y-79689711D01*
X142059030Y-79671810D01*
X142129152Y-79644113D01*
X142209679Y-79618907D01*
X142290279Y-79587913D01*
X142327748Y-79567789D01*
X142360328Y-79543363D01*
X142387864Y-79513754D01*
X142409860Y-79477857D01*
X142423727Y-79436565D01*
X142428765Y-79383848D01*
X142423640Y-79335399D01*
X142408248Y-79289033D01*
X142383200Y-79246636D01*
X142348604Y-79209312D01*
X142305905Y-79178882D01*
X142252104Y-79154284D01*
X142192073Y-79139092D01*
X142120726Y-79133695D01*
X142038682Y-79140657D01*
X141967512Y-79160586D01*
X141903422Y-79192874D01*
X141850422Y-79234445D01*
X141886472Y-79294089D01*
G37*
G36*
X140969975Y-80013408D02*
G01*
X141036424Y-80006320D01*
X141088341Y-79986709D01*
X141129051Y-79955523D01*
X141158905Y-79913602D01*
X141177901Y-79859647D01*
X141184811Y-79790146D01*
X141184811Y-79279801D01*
X141283876Y-79279801D01*
X141297147Y-79277552D01*
X141307836Y-79271008D01*
X141314843Y-79260479D01*
X141317435Y-79244556D01*
X141317435Y-79178244D01*
X141178950Y-79158900D01*
X141142020Y-78904570D01*
X141129051Y-78882369D01*
X141104211Y-78874382D01*
X141021120Y-78874382D01*
X141021120Y-79160586D01*
X140779393Y-79160586D01*
X140779393Y-79279801D01*
X141021120Y-79279801D01*
X141021120Y-79779228D01*
X141014318Y-79824966D01*
X140996354Y-79854333D01*
X140968525Y-79872750D01*
X140932973Y-79879099D01*
X140893991Y-79873237D01*
X140865855Y-79860268D01*
X140845705Y-79847226D01*
X140830610Y-79841364D01*
X140817568Y-79845174D01*
X140807969Y-79857264D01*
X140759243Y-79936179D01*
X140802876Y-79968650D01*
X140854937Y-79993258D01*
X140911312Y-80008357D01*
X140969975Y-80013408D01*
G37*
G36*
X140475164Y-79310868D02*
G01*
X140428427Y-79234102D01*
X140376099Y-79179050D01*
X140335253Y-79152662D01*
X140289275Y-79136711D01*
X140236734Y-79131203D01*
X140184271Y-79137505D01*
X140141040Y-79156409D01*
X140151957Y-79279801D01*
X140161955Y-79296897D01*
X140179654Y-79302442D01*
X140214972Y-79297826D01*
X140265310Y-79293210D01*
X140303316Y-79296193D01*
X140334993Y-79304567D01*
X140363575Y-79318568D01*
X140389141Y-79338126D01*
X140411329Y-79362469D01*
X140431493Y-79392714D01*
X140465931Y-79466133D01*
X140465931Y-80000000D01*
X140629623Y-80000000D01*
X140629623Y-79147177D01*
X140535541Y-79147177D01*
X140511376Y-79150057D01*
X140499051Y-79156849D01*
X140491312Y-79168803D01*
X140485202Y-79190774D01*
X140475164Y-79310868D01*
G37*
G36*
X139268726Y-79147177D02*
G01*
X139742142Y-80247662D01*
X139762292Y-80276165D01*
X139776830Y-80283413D01*
X139799222Y-80286203D01*
X139920928Y-80286203D01*
X139764783Y-79946290D01*
X140114808Y-79147177D01*
X139972146Y-79147177D01*
X139952792Y-79149911D01*
X139939393Y-79157288D01*
X139922613Y-79179856D01*
X139706019Y-79691960D01*
X139693049Y-79731015D01*
X139682498Y-79769996D01*
X139669968Y-79730136D01*
X139655680Y-79691081D01*
X139446633Y-79179856D01*
X139428168Y-79156409D01*
X139414772Y-79149495D01*
X139399665Y-79147177D01*
X139268726Y-79147177D01*
G37*
G36*
X138495111Y-80013408D02*
G01*
X138561561Y-80006320D01*
X138613477Y-79986709D01*
X138654187Y-79955523D01*
X138684041Y-79913602D01*
X138703037Y-79859647D01*
X138709947Y-79790146D01*
X138709947Y-79279801D01*
X138809012Y-79279801D01*
X138822283Y-79277552D01*
X138832973Y-79271008D01*
X138839979Y-79260479D01*
X138842571Y-79244556D01*
X138842571Y-79178244D01*
X138704086Y-79158900D01*
X138667156Y-78904570D01*
X138654187Y-78882369D01*
X138629347Y-78874382D01*
X138546256Y-78874382D01*
X138546256Y-79160586D01*
X138304529Y-79160586D01*
X138304529Y-79279801D01*
X138546256Y-79279801D01*
X138546256Y-79779228D01*
X138539454Y-79824966D01*
X138521490Y-79854333D01*
X138493661Y-79872750D01*
X138458109Y-79879099D01*
X138419127Y-79873237D01*
X138390991Y-79860268D01*
X138370841Y-79847226D01*
X138355746Y-79841364D01*
X138342704Y-79845174D01*
X138333105Y-79857264D01*
X138284379Y-79936179D01*
X138328012Y-79968650D01*
X138380073Y-79993258D01*
X138436448Y-80008357D01*
X138495111Y-80013408D01*
G37*
G36*
X137991067Y-79255474D02*
G01*
X137934149Y-79205895D01*
X137872292Y-79167327D01*
X137827781Y-79148975D01*
X137778150Y-79137631D01*
X137722449Y-79133695D01*
X137654716Y-79139862D01*
X137598618Y-79157215D01*
X137549347Y-79185648D01*
X137509225Y-79223161D01*
X137477903Y-79269115D01*
X137454637Y-79325157D01*
X137440958Y-79386677D01*
X137436172Y-79456901D01*
X137436172Y-80000000D01*
X137600743Y-80000000D01*
X137600743Y-79456901D01*
X137606002Y-79397225D01*
X137620395Y-79350744D01*
X137642728Y-79314605D01*
X137674082Y-79287326D01*
X137715762Y-79270116D01*
X137771102Y-79263827D01*
X137832106Y-79271293D01*
X137889072Y-79293649D01*
X137941378Y-79328234D01*
X137991067Y-79374616D01*
X137991067Y-80000000D01*
X138154759Y-80000000D01*
X138154759Y-78761029D01*
X137991067Y-78761029D01*
X137991067Y-79255474D01*
G37*
G36*
X136996179Y-79139826D02*
G01*
X137082631Y-79164836D01*
X137162253Y-79206430D01*
X137237456Y-79266318D01*
X137208074Y-79319221D01*
X137188363Y-79341057D01*
X137175218Y-79347926D01*
X137159421Y-79350289D01*
X137139105Y-79347045D01*
X137118754Y-79336880D01*
X137072519Y-79307058D01*
X137009578Y-79277309D01*
X136970682Y-79267489D01*
X136919379Y-79263827D01*
X136868328Y-79269672D01*
X136828951Y-79285828D01*
X136798479Y-79311674D01*
X136776946Y-79346017D01*
X136762700Y-79392874D01*
X136757372Y-79456095D01*
X136757372Y-79518157D01*
X136896754Y-79527199D01*
X137002030Y-79545048D01*
X137095815Y-79573336D01*
X137163231Y-79605498D01*
X137217945Y-79646389D01*
X137252184Y-79689030D01*
X137272740Y-79736932D01*
X137279442Y-79785969D01*
X137274494Y-79840732D01*
X137260610Y-79885840D01*
X137238011Y-79925399D01*
X137208953Y-79957208D01*
X137173666Y-79981889D01*
X137132163Y-79999560D01*
X137086986Y-80009874D01*
X137037714Y-80013408D01*
X136991009Y-80011208D01*
X136950446Y-80004982D01*
X136876148Y-79980289D01*
X136809396Y-79940795D01*
X136744770Y-79887526D01*
X136727111Y-79962191D01*
X136717712Y-79981416D01*
X136706961Y-79992013D01*
X136692613Y-79997735D01*
X136670031Y-80000000D01*
X136596978Y-80000000D01*
X136596978Y-79789340D01*
X136757372Y-79789340D01*
X136806905Y-79835502D01*
X136859735Y-79869501D01*
X136918939Y-79890896D01*
X136988182Y-79898443D01*
X137041085Y-79891775D01*
X137064064Y-79882950D01*
X137083510Y-79870380D01*
X137099499Y-79853762D01*
X137112013Y-79832571D01*
X137119719Y-79808027D01*
X137122491Y-79777543D01*
X137117667Y-79745539D01*
X137103220Y-79716727D01*
X137079281Y-79692313D01*
X137040279Y-79669246D01*
X136992984Y-79651923D01*
X136926926Y-79636933D01*
X136853461Y-79627318D01*
X136757372Y-79621399D01*
X136757372Y-79789340D01*
X136596978Y-79789340D01*
X136596978Y-79456095D01*
X136602099Y-79385865D01*
X136616762Y-79324277D01*
X136641502Y-79268370D01*
X136675087Y-79221915D01*
X136717781Y-79184031D01*
X136769975Y-79155163D01*
X136828942Y-79137465D01*
X136899229Y-79131203D01*
X136996179Y-79139826D01*
G37*
G36*
X136121071Y-80013408D02*
G01*
X136187520Y-80006320D01*
X136239437Y-79986709D01*
X136280146Y-79955523D01*
X136310001Y-79913602D01*
X136328997Y-79859647D01*
X136335907Y-79790146D01*
X136335907Y-79279801D01*
X136434972Y-79279801D01*
X136448242Y-79277552D01*
X136458932Y-79271008D01*
X136465939Y-79260479D01*
X136468531Y-79244556D01*
X136468531Y-79178244D01*
X136330045Y-79158900D01*
X136293116Y-78904570D01*
X136280146Y-78882369D01*
X136255307Y-78874382D01*
X136172215Y-78874382D01*
X136172215Y-79160586D01*
X135930488Y-79160586D01*
X135930488Y-79279801D01*
X136172215Y-79279801D01*
X136172215Y-79779228D01*
X136165414Y-79824966D01*
X136147449Y-79854333D01*
X136119620Y-79872750D01*
X136084068Y-79879099D01*
X136045087Y-79873237D01*
X136016950Y-79860268D01*
X135996800Y-79847226D01*
X135981706Y-79841364D01*
X135968663Y-79845174D01*
X135959065Y-79857264D01*
X135910338Y-79936179D01*
X135953972Y-79968650D01*
X136006033Y-79993258D01*
X136062408Y-80008357D01*
X136121071Y-80013408D01*
G37*
G36*
X135137980Y-79139826D02*
G01*
X135224431Y-79164836D01*
X135304053Y-79206430D01*
X135379257Y-79266318D01*
X135349874Y-79319221D01*
X135330164Y-79341057D01*
X135317018Y-79347926D01*
X135301221Y-79350289D01*
X135280906Y-79347045D01*
X135260555Y-79336880D01*
X135214319Y-79307058D01*
X135151378Y-79277309D01*
X135112482Y-79267489D01*
X135061179Y-79263827D01*
X135010128Y-79269672D01*
X134970752Y-79285828D01*
X134940279Y-79311674D01*
X134918746Y-79346017D01*
X134904501Y-79392874D01*
X134899173Y-79456095D01*
X134899173Y-79518157D01*
X135038554Y-79527199D01*
X135143831Y-79545048D01*
X135237615Y-79573336D01*
X135305031Y-79605498D01*
X135359745Y-79646389D01*
X135393984Y-79689030D01*
X135414541Y-79736932D01*
X135421242Y-79785969D01*
X135416294Y-79840732D01*
X135402411Y-79885840D01*
X135379812Y-79925399D01*
X135350753Y-79957208D01*
X135315466Y-79981889D01*
X135273963Y-79999560D01*
X135228786Y-80009874D01*
X135179515Y-80013408D01*
X135132809Y-80011208D01*
X135092247Y-80004982D01*
X135017948Y-79980289D01*
X134951197Y-79940795D01*
X134886570Y-79887526D01*
X134868911Y-79962191D01*
X134859512Y-79981416D01*
X134848761Y-79992013D01*
X134834413Y-79997735D01*
X134811832Y-80000000D01*
X134738779Y-80000000D01*
X134738779Y-79789340D01*
X134899173Y-79789340D01*
X134948705Y-79835502D01*
X135001535Y-79869501D01*
X135060739Y-79890896D01*
X135129982Y-79898443D01*
X135182885Y-79891775D01*
X135205864Y-79882950D01*
X135225310Y-79870380D01*
X135241299Y-79853762D01*
X135253813Y-79832571D01*
X135261519Y-79808027D01*
X135264291Y-79777543D01*
X135259467Y-79745539D01*
X135245021Y-79716727D01*
X135221082Y-79692313D01*
X135182079Y-79669246D01*
X135134785Y-79651923D01*
X135068726Y-79636933D01*
X134995262Y-79627318D01*
X134899173Y-79621399D01*
X134899173Y-79789340D01*
X134738779Y-79789340D01*
X134738779Y-79456095D01*
X134743899Y-79385865D01*
X134758562Y-79324277D01*
X134783302Y-79268370D01*
X134816887Y-79221915D01*
X134859581Y-79184031D01*
X134911776Y-79155163D01*
X134970742Y-79137465D01*
X135041029Y-79131203D01*
X135137980Y-79139826D01*
G37*
G36*
X134289047Y-79137871D02*
G01*
X134350945Y-79152233D01*
X134407473Y-79176100D01*
X134454187Y-79207627D01*
X134492715Y-79247297D01*
X134521744Y-79294089D01*
X134539810Y-79346749D01*
X134546071Y-79407369D01*
X134541869Y-79458362D01*
X134529750Y-79503491D01*
X134510021Y-79543803D01*
X134467498Y-79596069D01*
X134410956Y-79637372D01*
X134458363Y-79669319D01*
X134492802Y-79706615D01*
X134513391Y-79746109D01*
X134520059Y-79784284D01*
X134514202Y-79828775D01*
X134498224Y-79861074D01*
X134473023Y-79886658D01*
X134439459Y-79906796D01*
X134501592Y-79936851D01*
X134546071Y-79974427D01*
X134567409Y-80005120D01*
X134580252Y-80039824D01*
X134584686Y-80079720D01*
X134578998Y-80123047D01*
X134561605Y-80165303D01*
X134533387Y-80203180D01*
X134491922Y-80237550D01*
X134441396Y-80264638D01*
X134375272Y-80287083D01*
X134301877Y-80300600D01*
X134210335Y-80305547D01*
X134118469Y-80299170D01*
X134040781Y-80281221D01*
X133970308Y-80252176D01*
X133914019Y-80216594D01*
X133867578Y-80172698D01*
X133834665Y-80124197D01*
X133814124Y-80070945D01*
X133810842Y-80044476D01*
X133958496Y-80044476D01*
X133962609Y-80074315D01*
X133974909Y-80101556D01*
X133994505Y-80125285D01*
X134022756Y-80146472D01*
X134056593Y-80162782D01*
X134100352Y-80175854D01*
X134148373Y-80183541D01*
X134206964Y-80186332D01*
X134266054Y-80183715D01*
X134312331Y-80176660D01*
X134353990Y-80164646D01*
X134385384Y-80149842D01*
X134411119Y-80130506D01*
X134428175Y-80109103D01*
X134438572Y-80084755D01*
X134442024Y-80058764D01*
X134434986Y-80019501D01*
X134413887Y-79985711D01*
X134382544Y-79957471D01*
X134342079Y-79932882D01*
X134256497Y-79940868D01*
X134169668Y-79945484D01*
X134088629Y-79952592D01*
X134021071Y-79967686D01*
X133994469Y-79980475D01*
X133975275Y-79996263D01*
X133962915Y-80016694D01*
X133958496Y-80044476D01*
X133810842Y-80044476D01*
X133807407Y-80016779D01*
X133814061Y-79960991D01*
X133832174Y-79919839D01*
X133860677Y-79886496D01*
X133896800Y-79861074D01*
X133938753Y-79842902D01*
X133988318Y-79830006D01*
X134093245Y-79816598D01*
X134198171Y-79811102D01*
X134289616Y-79803189D01*
X134327158Y-79794420D01*
X134354243Y-79782599D01*
X134372771Y-79764619D01*
X134379009Y-79738928D01*
X134375957Y-79721764D01*
X134366040Y-79703318D01*
X134350643Y-79686556D01*
X134327864Y-79670125D01*
X134276307Y-79679493D01*
X134219567Y-79682728D01*
X134150850Y-79677759D01*
X134089874Y-79663457D01*
X134034107Y-79639555D01*
X133987878Y-79607990D01*
X133949725Y-79568231D01*
X133920760Y-79521088D01*
X133902629Y-79468046D01*
X133896792Y-79411545D01*
X134042467Y-79411545D01*
X134045384Y-79446657D01*
X134053824Y-79477930D01*
X134067943Y-79506055D01*
X134087383Y-79529515D01*
X134111876Y-79548236D01*
X134142777Y-79562707D01*
X134177470Y-79571335D01*
X134219567Y-79574431D01*
X134260875Y-79571241D01*
X134295551Y-79562267D01*
X134326415Y-79547519D01*
X134350945Y-79528709D01*
X134370373Y-79505265D01*
X134384504Y-79477491D01*
X134392880Y-79446601D01*
X134395788Y-79411545D01*
X134390463Y-79364180D01*
X134375418Y-79325532D01*
X134350945Y-79293649D01*
X134318324Y-79270131D01*
X134275548Y-79255061D01*
X134219567Y-79249539D01*
X134162986Y-79255082D01*
X134119977Y-79270171D01*
X134087383Y-79293649D01*
X134062867Y-79325538D01*
X134047800Y-79364186D01*
X134042467Y-79411545D01*
X133896792Y-79411545D01*
X133896361Y-79407369D01*
X133903102Y-79346552D01*
X133921566Y-79291524D01*
X133830049Y-79278115D01*
X133807960Y-79269861D01*
X133796270Y-79257523D01*
X133792313Y-79240307D01*
X133792313Y-79179050D01*
X134028984Y-79179050D01*
X134083932Y-79153988D01*
X134146920Y-79138366D01*
X134219567Y-79132889D01*
X134289047Y-79137871D01*
G37*
G36*
X133422809Y-79139826D02*
G01*
X133509260Y-79164836D01*
X133588882Y-79206430D01*
X133664086Y-79266318D01*
X133634703Y-79319221D01*
X133614993Y-79341057D01*
X133601847Y-79347926D01*
X133586050Y-79350289D01*
X133565735Y-79347045D01*
X133545384Y-79336880D01*
X133499148Y-79307058D01*
X133436207Y-79277309D01*
X133397311Y-79267489D01*
X133346008Y-79263827D01*
X133294957Y-79269672D01*
X133255581Y-79285828D01*
X133225108Y-79311674D01*
X133203575Y-79346017D01*
X133189330Y-79392874D01*
X133184002Y-79456095D01*
X133184002Y-79518157D01*
X133323383Y-79527199D01*
X133428660Y-79545048D01*
X133522444Y-79573336D01*
X133589860Y-79605498D01*
X133644575Y-79646389D01*
X133678813Y-79689030D01*
X133699370Y-79736932D01*
X133706071Y-79785969D01*
X133701123Y-79840732D01*
X133687240Y-79885840D01*
X133664641Y-79925399D01*
X133635582Y-79957208D01*
X133600295Y-79981889D01*
X133558793Y-79999560D01*
X133513615Y-80009874D01*
X133464344Y-80013408D01*
X133417639Y-80011208D01*
X133377076Y-80004982D01*
X133302777Y-79980289D01*
X133236026Y-79940795D01*
X133171399Y-79887526D01*
X133153740Y-79962191D01*
X133144341Y-79981416D01*
X133133590Y-79992013D01*
X133119242Y-79997735D01*
X133096661Y-80000000D01*
X133023608Y-80000000D01*
X133023608Y-79789340D01*
X133184002Y-79789340D01*
X133233534Y-79835502D01*
X133286364Y-79869501D01*
X133345569Y-79890896D01*
X133414811Y-79898443D01*
X133467714Y-79891775D01*
X133490693Y-79882950D01*
X133510139Y-79870380D01*
X133526128Y-79853762D01*
X133538642Y-79832571D01*
X133546348Y-79808027D01*
X133549121Y-79777543D01*
X133544296Y-79745539D01*
X133529850Y-79716727D01*
X133505911Y-79692313D01*
X133466908Y-79669246D01*
X133419614Y-79651923D01*
X133353555Y-79636933D01*
X133280091Y-79627318D01*
X133184002Y-79621399D01*
X133184002Y-79789340D01*
X133023608Y-79789340D01*
X133023608Y-79456095D01*
X133028728Y-79385865D01*
X133043391Y-79324277D01*
X133068131Y-79268370D01*
X133101716Y-79221915D01*
X133144411Y-79184031D01*
X133196605Y-79155163D01*
X133255571Y-79137465D01*
X133325858Y-79131203D01*
X133422809Y-79139826D01*
G37*
G36*
X132632843Y-79147177D02*
G01*
X132632843Y-80000000D01*
X132796462Y-80000000D01*
X132796462Y-79147177D01*
X132632843Y-79147177D01*
G37*
G36*
X132601776Y-78883614D02*
G01*
X132604086Y-78905752D01*
X132611008Y-78926845D01*
X132635774Y-78962896D01*
X132672264Y-78987295D01*
X132715935Y-78996088D01*
X132758726Y-78987295D01*
X132794410Y-78962896D01*
X132818737Y-78926845D01*
X132827529Y-78883614D01*
X132818737Y-78839504D01*
X132794410Y-78803454D01*
X132758726Y-78779127D01*
X132715935Y-78770261D01*
X132672264Y-78779127D01*
X132635774Y-78803454D01*
X132611008Y-78839504D01*
X132604107Y-78860715D01*
X132601776Y-78883614D01*
G37*
G36*
X132242446Y-79265512D02*
G01*
X132184560Y-79211803D01*
X132120300Y-79170258D01*
X132047320Y-79143367D01*
X132007426Y-79136173D01*
X131963789Y-79133695D01*
X131896056Y-79139862D01*
X131839958Y-79157215D01*
X131790687Y-79185648D01*
X131750565Y-79223161D01*
X131719243Y-79269115D01*
X131695977Y-79325157D01*
X131682298Y-79386677D01*
X131677512Y-79456901D01*
X131677512Y-80000000D01*
X131842083Y-80000000D01*
X131842083Y-79456901D01*
X131847342Y-79397225D01*
X131861735Y-79350744D01*
X131884068Y-79314605D01*
X131915422Y-79287326D01*
X131957102Y-79270116D01*
X132012442Y-79263827D01*
X132073446Y-79271293D01*
X132130412Y-79293649D01*
X132182718Y-79328234D01*
X132232407Y-79374616D01*
X132232407Y-80000000D01*
X132396099Y-80000000D01*
X132396099Y-79147177D01*
X132297840Y-79147177D01*
X132277400Y-79150971D01*
X132263675Y-79161499D01*
X132255049Y-79179856D01*
X132242446Y-79265512D01*
G37*
G36*
X144407476Y-77151448D02*
G01*
X144329581Y-77023503D01*
X144242368Y-76931751D01*
X144174291Y-76887771D01*
X144097662Y-76861186D01*
X144010093Y-76852006D01*
X143922654Y-76862508D01*
X143850602Y-76894016D01*
X143868798Y-77099668D01*
X143885462Y-77128163D01*
X143914960Y-77137404D01*
X143973823Y-77129710D01*
X144057720Y-77122016D01*
X144121062Y-77126989D01*
X144173858Y-77140945D01*
X144221495Y-77164281D01*
X144264105Y-77196877D01*
X144301085Y-77237448D01*
X144334692Y-77287857D01*
X144392089Y-77410223D01*
X144392089Y-78300000D01*
X144664908Y-78300000D01*
X144664908Y-76878628D01*
X144508104Y-76878628D01*
X144467830Y-76883429D01*
X144447288Y-76894748D01*
X144434390Y-76914672D01*
X144424207Y-76951290D01*
X144407476Y-77151448D01*
G37*
G36*
X143256096Y-76870258D02*
G01*
X143386052Y-76910746D01*
X143501644Y-76975995D01*
X143596590Y-77060467D01*
X143672134Y-77163009D01*
X143728725Y-77283583D01*
X143763101Y-77415203D01*
X143774887Y-77559944D01*
X143761464Y-77738111D01*
X143723840Y-77886618D01*
X143661512Y-78019008D01*
X143581202Y-78124511D01*
X143481331Y-78208605D01*
X143364315Y-78269958D01*
X143235051Y-78306880D01*
X143092106Y-78319539D01*
X142936157Y-78306960D01*
X142783017Y-78267882D01*
X142710948Y-78237236D01*
X142643188Y-78198639D01*
X142581116Y-78151814D01*
X142526928Y-78097156D01*
X142605330Y-77996406D01*
X142627101Y-77977671D01*
X142657110Y-77971249D01*
X142682519Y-77975910D01*
X142715117Y-77992254D01*
X142796328Y-78037683D01*
X142911000Y-78083112D01*
X142980841Y-78098494D01*
X143068415Y-78104117D01*
X143161842Y-78096162D01*
X143243292Y-78073342D01*
X143316116Y-78034575D01*
X143378237Y-77979675D01*
X143427888Y-77910413D01*
X143467141Y-77822260D01*
X143491717Y-77723049D01*
X143503533Y-77600488D01*
X142571747Y-77600488D01*
X142538591Y-77594502D01*
X142519967Y-77578872D01*
X142510312Y-77551671D01*
X142505923Y-77494120D01*
X142511014Y-77431228D01*
X142752242Y-77431228D01*
X143496450Y-77431228D01*
X143469226Y-77317711D01*
X143427162Y-77227238D01*
X143371276Y-77155600D01*
X143299785Y-77101771D01*
X143211179Y-77068286D01*
X143100533Y-77056315D01*
X143019862Y-77063623D01*
X142952277Y-77084281D01*
X142892566Y-77118057D01*
X142843223Y-77162683D01*
X142804130Y-77217036D01*
X142775323Y-77281507D01*
X142758179Y-77352120D01*
X142752242Y-77431228D01*
X142511014Y-77431228D01*
X142517831Y-77347021D01*
X142551475Y-77222766D01*
X142606355Y-77111895D01*
X142676649Y-77022732D01*
X142763530Y-76951433D01*
X142866304Y-76898900D01*
X142979706Y-76867104D01*
X143106150Y-76856158D01*
X143256096Y-76870258D01*
G37*
G36*
X141009936Y-76878628D02*
G01*
X141586349Y-78300000D01*
X141832546Y-78300000D01*
X142408959Y-76878628D01*
X142183767Y-76878628D01*
X142153630Y-76882692D01*
X142130644Y-76894016D01*
X142113029Y-76911606D01*
X142102556Y-76933094D01*
X141762692Y-77806140D01*
X141731185Y-77914584D01*
X141706639Y-78021563D01*
X141681604Y-77915317D01*
X141647898Y-77806140D01*
X141303760Y-76933094D01*
X141274451Y-76894016D01*
X141251729Y-76882595D01*
X141224015Y-76878628D01*
X141009936Y-76878628D01*
G37*
G36*
X140836890Y-77468963D02*
G01*
X140832493Y-77423866D01*
X140819426Y-77381524D01*
X140798700Y-77342693D01*
X140771921Y-77309473D01*
X140739383Y-77282052D01*
X140701946Y-77261235D01*
X140660951Y-77248164D01*
X140617316Y-77243771D01*
X140572130Y-77248174D01*
X140529877Y-77261235D01*
X140491097Y-77282112D01*
X140457825Y-77309473D01*
X140430464Y-77342745D01*
X140409587Y-77381524D01*
X140396428Y-77423872D01*
X140392001Y-77468963D01*
X140396458Y-77513863D01*
X140409587Y-77555059D01*
X140430375Y-77592606D01*
X140457825Y-77625645D01*
X140491092Y-77653033D01*
X140529877Y-77674005D01*
X140572130Y-77687066D01*
X140617316Y-77691468D01*
X140660951Y-77687076D01*
X140701946Y-77674005D01*
X140739387Y-77653093D01*
X140771921Y-77625645D01*
X140819426Y-77555059D01*
X140832463Y-77513869D01*
X140836890Y-77468963D01*
G37*
G36*
X139999503Y-78300000D02*
G01*
X139276300Y-78300000D01*
X139112289Y-78289000D01*
X138974050Y-78258112D01*
X138849473Y-78206206D01*
X138750201Y-78139166D01*
X138669837Y-78054660D01*
X138611715Y-77956594D01*
X138576305Y-77846703D01*
X138564088Y-77722243D01*
X138564835Y-77715160D01*
X138857912Y-77715160D01*
X138864020Y-77788690D01*
X138881726Y-77854501D01*
X138912288Y-77913673D01*
X138956586Y-77964288D01*
X139013263Y-78004602D01*
X139088111Y-78037072D01*
X139173019Y-78056431D01*
X139281796Y-78063572D01*
X139701527Y-78063572D01*
X139701527Y-77393492D01*
X139281796Y-77393492D01*
X139139332Y-77404838D01*
X139035677Y-77434860D01*
X138961471Y-77479588D01*
X138904456Y-77543172D01*
X138870021Y-77620290D01*
X138857912Y-77715160D01*
X138564835Y-77715160D01*
X138576338Y-77606167D01*
X138611057Y-77509863D01*
X138667448Y-77429040D01*
X138747730Y-77361175D01*
X138856856Y-77305847D01*
X139002015Y-77264776D01*
X138911341Y-77229283D01*
X138837029Y-77187840D01*
X138772120Y-77137826D01*
X138720892Y-77083548D01*
X138680396Y-77022893D01*
X138652260Y-76958374D01*
X138635536Y-76890037D01*
X138632664Y-76853471D01*
X138925079Y-76853471D01*
X138937499Y-76949151D01*
X138973015Y-77027777D01*
X139032179Y-77093440D01*
X139108756Y-77139706D01*
X139214570Y-77170598D01*
X139358732Y-77182222D01*
X139701527Y-77182222D01*
X139701527Y-76524598D01*
X139344810Y-76524598D01*
X139202574Y-76535056D01*
X139099924Y-76562544D01*
X139027295Y-76603000D01*
X138972522Y-76662438D01*
X138937844Y-76743499D01*
X138925079Y-76853471D01*
X138632664Y-76853471D01*
X138629911Y-76818422D01*
X138640628Y-76699698D01*
X138671189Y-76598115D01*
X138723467Y-76508543D01*
X138799172Y-76432397D01*
X138894655Y-76373406D01*
X139020944Y-76327372D01*
X139162960Y-76300817D01*
X139344810Y-76290980D01*
X139999503Y-76290980D01*
X139999503Y-78300000D01*
G37*
M02*
