%TF.GenerationSoftware,KiCad,Pcbnew,9.0.2+dfsg-1*%
%TF.CreationDate,2026-06-20T12:58:49+01:00*%
%TF.ProjectId,squares-revB,73717561-7265-4732-9d72-6576422e6b69,rev?*%
%TF.SameCoordinates,Original*%
%TF.FileFunction,Paste,Top*%
%TF.FilePolarity,Positive*%
%FSLAX46Y46*%
G04 Gerber Fmt 4.6, Leading zero omitted, Abs format (unit mm)*
G04 Created by KiCad (PCBNEW 9.0.2+dfsg-1) date 2026-06-20 12:58:49*
%MOMM*%
%LPD*%
G01*
G04 APERTURE LIST*
G04 Aperture macros list*
%AMRoundRect*
0 Rectangle with rounded corners*
0 $1 Rounding radius*
0 $2 $3 $4 $5 $6 $7 $8 $9 X,Y pos of 4 corners*
0 Add a 4 corners polygon primitive as box body*
4,1,4,$2,$3,$4,$5,$6,$7,$8,$9,$2,$3,0*
0 Add four circle primitives for the rounded corners*
1,1,$1+$1,$2,$3*
1,1,$1+$1,$4,$5*
1,1,$1+$1,$6,$7*
1,1,$1+$1,$8,$9*
0 Add four rect primitives between the rounded corners*
20,1,$1+$1,$2,$3,$4,$5,0*
20,1,$1+$1,$4,$5,$6,$7,0*
20,1,$1+$1,$6,$7,$8,$9,0*
20,1,$1+$1,$8,$9,$2,$3,0*%
G04 Aperture macros list end*
%ADD10RoundRect,0.250000X-0.475000X0.337500X-0.475000X-0.337500X0.475000X-0.337500X0.475000X0.337500X0*%
%ADD11RoundRect,0.250000X0.450000X-0.350000X0.450000X0.350000X-0.450000X0.350000X-0.450000X-0.350000X0*%
%ADD12RoundRect,0.250000X0.350000X0.450000X-0.350000X0.450000X-0.350000X-0.450000X0.350000X-0.450000X0*%
%ADD13RoundRect,0.250000X0.475000X-0.337500X0.475000X0.337500X-0.475000X0.337500X-0.475000X-0.337500X0*%
%ADD14RoundRect,0.250000X-0.450000X0.350000X-0.450000X-0.350000X0.450000X-0.350000X0.450000X0.350000X0*%
%ADD15RoundRect,0.250000X0.337500X0.475000X-0.337500X0.475000X-0.337500X-0.475000X0.337500X-0.475000X0*%
%ADD16RoundRect,0.250000X-0.350000X-0.450000X0.350000X-0.450000X0.350000X0.450000X-0.350000X0.450000X0*%
%ADD17RoundRect,0.150000X0.150000X-0.587500X0.150000X0.587500X-0.150000X0.587500X-0.150000X-0.587500X0*%
%ADD18RoundRect,0.100000X-0.637500X-0.100000X0.637500X-0.100000X0.637500X0.100000X-0.637500X0.100000X0*%
%ADD19R,1.003300X0.558800*%
%ADD20RoundRect,0.250000X-0.325000X-0.450000X0.325000X-0.450000X0.325000X0.450000X-0.325000X0.450000X0*%
%ADD21RoundRect,0.250001X0.462499X0.624999X-0.462499X0.624999X-0.462499X-0.624999X0.462499X-0.624999X0*%
%ADD22RoundRect,0.250000X-0.337500X-0.475000X0.337500X-0.475000X0.337500X0.475000X-0.337500X0.475000X0*%
G04 APERTURE END LIST*
D10*
%TO.C,C22*%
X176022000Y-56939000D03*
X176022000Y-54864000D03*
%TD*%
D11*
%TO.C,R62*%
X177292000Y-75962000D03*
X177292000Y-77962000D03*
%TD*%
D12*
%TO.C,R64*%
X180610000Y-77470000D03*
X182610000Y-77470000D03*
%TD*%
D13*
%TO.C,C25*%
X175260000Y-75924500D03*
X175260000Y-77999500D03*
%TD*%
%TO.C,C26*%
X173228000Y-75924500D03*
X173228000Y-77999500D03*
%TD*%
%TO.C,C21*%
X178054000Y-56939000D03*
X178054000Y-54864000D03*
%TD*%
D11*
%TO.C,R56*%
X173990000Y-58404000D03*
X173990000Y-56404000D03*
%TD*%
D12*
%TO.C,R55*%
X178022000Y-58928000D03*
X176022000Y-58928000D03*
%TD*%
D14*
%TO.C,R20*%
X116078000Y-59087000D03*
X116078000Y-61087000D03*
%TD*%
D15*
%TO.C,C14*%
X122957500Y-39878000D03*
X120882500Y-39878000D03*
%TD*%
D11*
%TO.C,R31*%
X116078000Y-64897000D03*
X116078000Y-62897000D03*
%TD*%
D12*
%TO.C,R7*%
X86106000Y-56896000D03*
X84106000Y-56896000D03*
%TD*%
D16*
%TO.C,R30*%
X125476000Y-77724000D03*
X127476000Y-77724000D03*
%TD*%
D12*
%TO.C,R17*%
X91678000Y-77724000D03*
X89678000Y-77724000D03*
%TD*%
D16*
%TO.C,R35*%
X142240000Y-27178000D03*
X144240000Y-27178000D03*
%TD*%
D14*
%TO.C,R40*%
X141605000Y-58071000D03*
X141605000Y-60071000D03*
%TD*%
D11*
%TO.C,R39*%
X141605000Y-63881000D03*
X141605000Y-61881000D03*
%TD*%
D12*
%TO.C,R50*%
X169418000Y-37592000D03*
X167418000Y-37592000D03*
%TD*%
D16*
%TO.C,R13*%
X93758000Y-56114000D03*
X95758000Y-56114000D03*
%TD*%
D17*
%TO.C,Q3*%
X99700000Y-50038000D03*
X101600000Y-50038000D03*
X100650000Y-48163000D03*
%TD*%
D12*
%TO.C,R8*%
X85582000Y-77724000D03*
X83582000Y-77724000D03*
%TD*%
D15*
%TO.C,C11*%
X130556000Y-29210000D03*
X128481000Y-29210000D03*
%TD*%
D11*
%TO.C,R25*%
X118618000Y-61071000D03*
X118618000Y-59071000D03*
%TD*%
D14*
%TO.C,R36*%
X143637000Y-58071000D03*
X143637000Y-60071000D03*
%TD*%
D11*
%TO.C,R24*%
X137541000Y-63881000D03*
X137541000Y-61881000D03*
%TD*%
D16*
%TO.C,R2*%
X84106000Y-54864000D03*
X86106000Y-54864000D03*
%TD*%
D14*
%TO.C,R23*%
X122936000Y-59055000D03*
X122936000Y-61055000D03*
%TD*%
D11*
%TO.C,R38*%
X145669000Y-63865000D03*
X145669000Y-61865000D03*
%TD*%
D14*
%TO.C,R9*%
X100584000Y-41148000D03*
X100584000Y-43148000D03*
%TD*%
D11*
%TO.C,R21*%
X125174500Y-61055000D03*
X125174500Y-59055000D03*
%TD*%
D16*
%TO.C,R6*%
X84106000Y-46736000D03*
X86106000Y-46736000D03*
%TD*%
D12*
%TO.C,R33*%
X155194000Y-37592000D03*
X153194000Y-37592000D03*
%TD*%
D18*
%TO.C,U5*%
X117533500Y-41992000D03*
X117533500Y-42642000D03*
X117533500Y-43292000D03*
X117533500Y-43942000D03*
X117533500Y-44592000D03*
X117533500Y-45242000D03*
X117533500Y-45892000D03*
X123258500Y-45892000D03*
X123258500Y-45242000D03*
X123258500Y-44592000D03*
X123258500Y-43942000D03*
X123258500Y-43292000D03*
X123258500Y-42642000D03*
X123258500Y-41992000D03*
%TD*%
D12*
%TO.C,R14*%
X105664000Y-77724000D03*
X103664000Y-77724000D03*
%TD*%
D16*
%TO.C,R32*%
X117364000Y-77724000D03*
X119364000Y-77724000D03*
%TD*%
D11*
%TO.C,R43*%
X147701000Y-63865000D03*
X147701000Y-61865000D03*
%TD*%
D14*
%TO.C,R18*%
X139573000Y-58071000D03*
X139573000Y-60071000D03*
%TD*%
D16*
%TO.C,R60*%
X172974000Y-66294000D03*
X174974000Y-66294000D03*
%TD*%
%TO.C,R52*%
X167402000Y-27432000D03*
X169402000Y-27432000D03*
%TD*%
D12*
%TO.C,R16*%
X99552000Y-77724000D03*
X97552000Y-77724000D03*
%TD*%
D16*
%TO.C,R34*%
X153194000Y-27432000D03*
X155194000Y-27432000D03*
%TD*%
D12*
%TO.C,R42*%
X155194000Y-40132000D03*
X153194000Y-40132000D03*
%TD*%
D11*
%TO.C,R58*%
X191008000Y-43942000D03*
X191008000Y-41942000D03*
%TD*%
D16*
%TO.C,R61*%
X172974000Y-63754000D03*
X174974000Y-63754000D03*
%TD*%
D17*
%TO.C,Q2*%
X103378000Y-50038000D03*
X105278000Y-50038000D03*
X104328000Y-48163000D03*
%TD*%
D11*
%TO.C,R41*%
X143637000Y-63881000D03*
X143637000Y-61881000D03*
%TD*%
D14*
%TO.C,R12*%
X104648000Y-41148000D03*
X104648000Y-43148000D03*
%TD*%
D11*
%TO.C,R29*%
X122952000Y-64897000D03*
X122952000Y-62897000D03*
%TD*%
D16*
%TO.C,R11*%
X93742000Y-60960000D03*
X95742000Y-60960000D03*
%TD*%
D11*
%TO.C,R28*%
X120666000Y-64881000D03*
X120666000Y-62881000D03*
%TD*%
%TO.C,R10*%
X102616000Y-43148000D03*
X102616000Y-41148000D03*
%TD*%
D15*
%TO.C,C13*%
X123211500Y-48514000D03*
X121136500Y-48514000D03*
%TD*%
D16*
%TO.C,R63*%
X172974000Y-68834000D03*
X174974000Y-68834000D03*
%TD*%
%TO.C,R59*%
X172974000Y-61214000D03*
X174974000Y-61214000D03*
%TD*%
%TO.C,R3*%
X84090000Y-44704000D03*
X86090000Y-44704000D03*
%TD*%
D18*
%TO.C,U2*%
X117279500Y-32340000D03*
X117279500Y-32990000D03*
X117279500Y-33640000D03*
X117279500Y-34290000D03*
X117279500Y-34940000D03*
X117279500Y-35590000D03*
X117279500Y-36240000D03*
X123004500Y-36240000D03*
X123004500Y-35590000D03*
X123004500Y-34940000D03*
X123004500Y-34290000D03*
X123004500Y-33640000D03*
X123004500Y-32990000D03*
X123004500Y-32340000D03*
%TD*%
D15*
%TO.C,C16*%
X146833500Y-31242000D03*
X144758500Y-31242000D03*
%TD*%
D16*
%TO.C,R65*%
X172974000Y-71374000D03*
X174974000Y-71374000D03*
%TD*%
D19*
%TO.C,Q1*%
X94029450Y-48579999D03*
X94029450Y-49530000D03*
X94029450Y-50480001D03*
X96734550Y-50480001D03*
X96734550Y-49530000D03*
X96734550Y-48579999D03*
%TD*%
D14*
%TO.C,R57*%
X176022000Y-44212000D03*
X176022000Y-46212000D03*
%TD*%
D15*
%TO.C,C20*%
X169439500Y-35052000D03*
X167364500Y-35052000D03*
%TD*%
%TO.C,C23*%
X188743500Y-48768000D03*
X186668500Y-48768000D03*
%TD*%
D20*
%TO.C,D3*%
X142231000Y-25146000D03*
X144281000Y-25146000D03*
%TD*%
D21*
%TO.C,D2*%
X87085500Y-39624000D03*
X84110500Y-39624000D03*
%TD*%
%TO.C,D1*%
X87049000Y-42164000D03*
X84074000Y-42164000D03*
%TD*%
D11*
%TO.C,R22*%
X139573000Y-63881000D03*
X139573000Y-61881000D03*
%TD*%
D22*
%TO.C,C15*%
X153119000Y-29972000D03*
X155194000Y-29972000D03*
%TD*%
D14*
%TO.C,R37*%
X145669000Y-58071000D03*
X145669000Y-60071000D03*
%TD*%
D12*
%TO.C,R1*%
X86122000Y-50800000D03*
X84122000Y-50800000D03*
%TD*%
D15*
%TO.C,C17*%
X155237000Y-32512000D03*
X153162000Y-32512000D03*
%TD*%
D22*
%TO.C,C18*%
X153119000Y-24892000D03*
X155194000Y-24892000D03*
%TD*%
D16*
%TO.C,R27*%
X131588000Y-77724000D03*
X133588000Y-77724000D03*
%TD*%
%TO.C,R15*%
X111776000Y-77724000D03*
X113776000Y-77724000D03*
%TD*%
D14*
%TO.C,R26*%
X120666000Y-59055000D03*
X120666000Y-61055000D03*
%TD*%
D10*
%TO.C,C4*%
X93980000Y-63986500D03*
X93980000Y-66061500D03*
%TD*%
D15*
%TO.C,C24*%
X169461000Y-40132000D03*
X167386000Y-40132000D03*
%TD*%
D22*
%TO.C,C9*%
X137138500Y-31242000D03*
X139213500Y-31242000D03*
%TD*%
D16*
%TO.C,R5*%
X84106000Y-52832000D03*
X86106000Y-52832000D03*
%TD*%
D17*
%TO.C,Q4*%
X107188000Y-50038000D03*
X109088000Y-50038000D03*
X108138000Y-48163000D03*
%TD*%
D18*
%TO.C,U4*%
X117787500Y-50628000D03*
X117787500Y-51278000D03*
X117787500Y-51928000D03*
X117787500Y-52578000D03*
X117787500Y-53228000D03*
X117787500Y-53878000D03*
X117787500Y-54528000D03*
X123512500Y-54528000D03*
X123512500Y-53878000D03*
X123512500Y-53228000D03*
X123512500Y-52578000D03*
X123512500Y-51928000D03*
X123512500Y-51278000D03*
X123512500Y-50628000D03*
%TD*%
D14*
%TO.C,R53*%
X173990000Y-44228000D03*
X173990000Y-46228000D03*
%TD*%
D11*
%TO.C,R49*%
X179070000Y-37846000D03*
X179070000Y-35846000D03*
%TD*%
D16*
%TO.C,R66*%
X172974000Y-73914000D03*
X174974000Y-73914000D03*
%TD*%
D14*
%TO.C,R19*%
X137541000Y-58071000D03*
X137541000Y-60071000D03*
%TD*%
D16*
%TO.C,R51*%
X167402000Y-24892000D03*
X169402000Y-24892000D03*
%TD*%
D12*
%TO.C,R4*%
X86122000Y-48768000D03*
X84122000Y-48768000D03*
%TD*%
%TO.C,R46*%
X155686000Y-77724000D03*
X153686000Y-77724000D03*
%TD*%
D14*
%TO.C,R44*%
X147701000Y-58071000D03*
X147701000Y-60071000D03*
%TD*%
D12*
%TO.C,R48*%
X147542000Y-77724000D03*
X145542000Y-77724000D03*
%TD*%
D15*
%TO.C,C10*%
X130556000Y-31242000D03*
X128481000Y-31242000D03*
%TD*%
D12*
%TO.C,R47*%
X161544000Y-77724000D03*
X159544000Y-77724000D03*
%TD*%
%TO.C,R45*%
X141446000Y-77724000D03*
X139446000Y-77724000D03*
%TD*%
D15*
%TO.C,C12*%
X123190000Y-29972000D03*
X121115000Y-29972000D03*
%TD*%
D14*
%TO.C,R54*%
X171958000Y-44212000D03*
X171958000Y-46212000D03*
%TD*%
M02*
